<svg width="745" height="582" fill="none" xmlns="http://www.w3.org/2000/svg"><path d="M278.248 157.28C378.26 123.618 506.706-19.698 612.5 2.28c129.461 26.894 64.883 133.536 100.743 229.339 48.579 129.781 61.506 290.203-110.271 335.04-85.029 22.194-155.162 22.169-230.013-15.002-51.227-25.44-42.262-69.468-94.711-93.511-51.652-23.678-99.873.464-152.891-21.503C46.984 404.17 7.8 359.841.88 293.626c-6.176-59.091 20.39-96.902 72.386-142.017 48.13-41.76 137.438 28.405 204.982 5.671z" fill="url(#paint0_linear)"/><defs><linearGradient id="paint0_linear" x1="513.459" y1="142.841" x2="478.912" y2="489.604" gradientUnits="userSpaceOnUse"><stop stop-color="#37B5FF"/><stop offset="1" stop-color="#006DB7"/></linearGradient></defs></svg>