<svg width="100" height="100" fill="none" xmlns="http://www.w3.org/2000/svg"><g clip-path="url(#clip0)" fill="#fff"><path d="M25.759 40.96c.759.536 3.047 2.126 6.864 4.771 3.817 2.645 6.74 4.682 8.772 6.11.223.157.697.497 1.423 1.022.725.525 1.328.949 1.808 1.272.48.324 1.06.687 1.74 1.088a10.1 10.1 0 0 0 1.926.903c.603.202 1.161.302 1.674.302h.068c.513 0 1.071-.1 1.674-.302.602-.2 1.245-.502 1.925-.903.68-.402 1.261-.764 1.741-1.088.48-.323 1.082-.747 1.808-1.272.725-.525 1.2-.865 1.423-1.022 2.053-1.428 7.277-5.056 15.67-10.882a15.905 15.905 0 0 0 4.084-4.118C79.453 35.235 80 33.55 80 31.786c0-1.473-.53-2.735-1.59-3.784-1.061-1.049-2.317-1.573-3.767-1.573H25.357c-1.719 0-3.041.58-3.968 1.74C20.463 29.332 20 30.782 20 32.523c0 1.407.614 2.93 1.841 4.57 1.228 1.642 2.534 2.93 3.918 3.868z"/><path d="M76.651 44.542c-7.32 4.955-12.879 8.806-16.673 11.552a79.074 79.074 0 0 1-3.097 2.193c-.793.524-1.847 1.06-3.164 1.607-1.317.547-2.544.82-3.683.82h-.067c-1.139 0-2.367-.273-3.684-.82-1.316-.547-2.371-1.083-3.163-1.607a79.312 79.312 0 0 1-3.097-2.193c-3.014-2.21-8.56-6.06-16.641-11.552A17.735 17.735 0 0 1 20 41.63v26.585c0 1.474.524 2.734 1.574 3.783 1.049 1.05 2.31 1.574 3.783 1.574h49.286c1.473 0 2.734-.524 3.784-1.574 1.049-1.05 1.573-2.31 1.573-3.783V41.63a18.457 18.457 0 0 1-3.349 2.912z"/></g><defs><clipPath id="clip0"><path fill="#fff" transform="translate(20 20)" d="M0 0h60v60H0z"/></clipPath></defs></svg>