<svg xmlns="http://www.w3.org/2000/svg" width="125" height="125" fill="none"><path fill="#006DB7" d="M25.786 41.797L42.583 25l58.057 58.058-16.796 16.796z"/><path fill="#006DB7" stroke="#006DB7" d="M30.044 42.35l13.703-13.704L97.42 82.318 83.716 96.022z"/><path d="M50.845 30.465l1.502 1.502-5.35 5.35-1.503-1.501zm11.727 10.911l1.502 1.502-5.934 5.934-1.502-1.501zm-4.689-6.454l1.502 1.502-10.293 10.293-1.501-1.502zm24.534 28.304l1.502 1.502-5.35 5.35-1.503-1.501zm11.726 10.911l1.502 1.502-5.934 5.934-1.502-1.502zm-4.689-6.454l1.502 1.502-10.292 10.293-1.502-1.502z" fill="#F8F8F8" stroke="#F8F8F8"/><path stroke="#006DB7" d="M26.493 41.714L42.5 25.707 100.292 83.5 84.285 99.506z"/><path fill="#F8F8F8" stroke="#006DB7" d="M89.05 46.973L79.024 36.95l-46.86 46.86-3.4 12.872 13.433-2.857L89.05 46.973z"/><path stroke="#006DB7" d="M89.359 46.665L79.335 36.64l4.887-4.888 10.024 10.024z"/><path fill="#006DB7" stroke="#006DB7" d="M97.674 34.813l-6.49-6.488a2.5 2.5 0 0 0-3.535 0l-2.72 2.72L94.951 41.07l2.722-2.72a2.5 2.5 0 0 0 0-3.537z"/><mask id="a" fill="#fff"><path fill-rule="evenodd" d="M42.742 93.988l-10.64-10.823-.387.387-3.641 13.788 14.372-3.056.296-.296z" clip-rule="evenodd"/></mask><path fill="#006DB7" d="M42.742 93.988l.707.707.7-.7-.694-.708-.713.701zm-10.64-10.823l.714-.701-.707-.72-.714.714.707.707zm-.387.387l-.707-.707-.19.19-.07.262.967.255zM28.074 97.34l-.967-.255-.415 1.572 1.59-.338-.208-.979zm14.372-3.056l.209.978.29-.062.209-.21-.708-.706zm1.009-.997l-10.64-10.823-1.426 1.402 10.64 10.823 1.426-1.402zm-12.06-10.83l-.387.388 1.415 1.414.387-.387-1.415-1.414zm-.646.84l-3.642 13.788 1.934.51 3.641-13.788-1.934-.51zm-2.467 15.022l14.372-3.057-.416-1.957-14.372 3.057.416 1.957zm14.872-3.328l.295-.296-1.414-1.414-.296.295 1.415 1.415z" mask="url(#a)"/><mask id="b" fill="#fff"><path fill-rule="evenodd" d="M34.934 95.881L29.83 90.69l-1.756 6.651 6.86-1.459z" clip-rule="evenodd"/></mask><path fill="#37B5FF" fill-rule="evenodd" d="M34.934 95.881L29.83 90.69l-1.756 6.651 6.86-1.459z" clip-rule="evenodd"/><path fill="#006DB7" d="M29.83 90.69l.713-.702-1.231-1.252-.449 1.698.967.255zm5.104 5.191l.208.978 1.783-.379-1.278-1.3-.713.701zm-6.86 1.46l-.967-.256-.415 1.572 1.59-.338-.209-.979zm1.043-5.95l5.104 5.191 1.426-1.402-5.104-5.192-1.426 1.402zm-.254-.957l-1.756 6.651 1.933.51 1.757-6.65-1.934-.511zm-.581 7.885l6.86-1.46-.416-1.956-6.86 1.46.416 1.956z" mask="url(#b)"/><path fill="#37B5FF" fill-opacity=".136" d="M37.22 48.245c-1.315-9.373 3.249-18.764 12.014-22.336l23.815-9.706a23 23 0 0 1 26.017 6.185l12.925 14.826a23 23 0 0 1 4.903 20.974l-6.75 25.621c-3.018 11.453-14.24 18.742-25.93 16.842l-9.872-1.604a23.001 23.001 0 0 0-7.107-.042l-1.4.21c-15.604 2.346-28.98-11.416-28.09-27.171.463-8.182.474-16.674-.526-23.799z"/></svg>