<svg width="125" height="125" fill="none" xmlns="http://www.w3.org/2000/svg"><rect x="27.5" y="26.5" width="71" height="72" rx="9.5" stroke="#006DB7"/><path d="M27.5 36a9.5 9.5 0 0 1 9.5-9.5h52a9.5 9.5 0 0 1 9.5 9.5v10.5h-71V36z" fill="#006DB7" stroke="#006DB7"/><path stroke="#006DB7" d="M33.5 52.5h33v21h-33z"/><path fill="#37B5FF" stroke="#006DB7" d="M33.5 80.5h33v11h-33z"/><path stroke="#006DB7" d="M73.5 52.5h19v39h-19z"/><circle cx="37" cy="36" r="3.5" stroke="#F8F8F8"/><circle cx="49" cy="36" r="3.5" stroke="#F8F8F8"/><rect x="59.5" y="32.5" width="33" height="7" rx="3.5" fill="#F8F8F8" stroke="#F8F8F8"/><path d="M16.882 66.177c-1.176-8.375 2.903-16.765 10.736-19.952l19.773-8.043a23 23 0 0 1 25.99 6.174l9.587 10.978a23 23 0 0 1 4.915 21l-5.146 19.494c-3.021 11.444-14.235 18.727-25.92 16.832l-6.578-1.066a21.406 21.406 0 0 0-6.602-.04c-14.527 2.179-26.956-10.639-26.22-25.31.35-6.936.311-14.048-.535-20.067z" fill="#37B5FF" fill-opacity=".136"/></svg>