<svg width="200" height="180" fill="none" xmlns="http://www.w3.org/2000/svg"><path fill="#fff" d="M0 0h200v180H0z"/><g clip-path="url(#clip0)"><path d="M155.268 96.3l-5.017-1.606a3.875 3.875 0 0 1-2.511-2.535c-5.774-18.36-27.213-26.792-48.794-26.792-25.247 0-45.714 11.538-45.714 37.016 0 14.684 7.202 24.969 18.33 30.909.273.146.468.406.526.71l2.493 12.949a2.583 2.583 0 0 0 2.539 2.103h8.418a2.583 2.583 0 0 0 2.538-2.103l1.363-7.199c.1-.531.595-.889 1.132-.827a72.5 72.5 0 0 0 8.375.474c3.824 0 7.643-.283 11.372-.846a1.027 1.027 0 0 1 1.167.822l1.434 7.576a2.584 2.584 0 0 0 2.539 2.103h8.418a2.583 2.583 0 0 0 2.538-2.103l2.589-13.71c.059-.309.258-.573.537-.718 6.608-3.436 12.075-8.163 15.562-14.189a3.728 3.728 0 0 1 2.083-1.697l8.083-2.59a4.949 4.949 0 0 0 3.44-4.713v-8.32a4.948 4.948 0 0 0-3.44-4.713z" fill="#F8F8F8"/><path d="M158.078 98.604a5.012 5.012 0 0 0-.801-1.07l-.02-.021a4.94 4.94 0 0 0-1.989-1.213l-3.719-1.191v4.376a12.687 12.687 0 0 1-8.612 12.013c-2.341.75-4.365 2.233-5.848 4.193-1.816 2.401-3.973 4.558-6.406 6.472-2.867 2.257-4.801 5.487-5.353 9.094-.394 2.571-.7 6.029-.894 7.973a2.925 2.925 0 0 1-2.91 2.635h-4.167a2.583 2.583 0 0 1-2.538-2.103l-1.434-8.29a1.03 1.03 0 0 0-1.168-.822c-3.728.564-9.449.846-13.273.846-2.86 0-8.036-.158-10.751-.473a1.027 1.027 0 0 0-1.133.827l-1.363 7.674a2.583 2.583 0 0 1-2.538 2.103h-4.14a2.583 2.583 0 0 1-2.538-2.103l-2.018-11.998a1.027 1.027 0 0 0-.527-.71c-10.111-5.398-19.357-15.81-20.527-28.424-.028.31-.052.622-.074.936l-.001.018-.006.093c-.019.283-.035.567-.049.852l-.013.358a46.81 46.81 0 0 0-.023.656c-.008.357-.013.715-.013 1.078 0 1.835.112 3.602.33 5.3a35.785 35.785 0 0 0 1.272 5.932l.097.306c.08.252.163.503.248.753l.104.299c.236.668.492 1.321.767 1.961l.087.204c.136.309.275.616.42.919.023.051.048.1.072.15.135.279.274.556.416.831l.072.142a30.413 30.413 0 0 0 .587 1.063 31.445 31.445 0 0 0 2.349 3.508l.181.235c.208.265.419.527.635.784l.006.007c.216.258.438.511.662.762l.206.227c.167.184.337.365.508.546l.209.217c.235.242.472.482.715.718l.002.001a34.447 34.447 0 0 0 2.56 2.245 36.557 36.557 0 0 0 3.687 2.573l.258.156c.226.136.452.27.68.402l.271.156c.307.174.615.345.928.512a1.048 1.048 0 0 1 .329.279l.034.05a.94.94 0 0 1 .076.13 1.01 1.01 0 0 1 .088.252l2.493 12.948a2.594 2.594 0 0 0 .578 1.203c.054.063.112.123.172.18l.06.053a2.528 2.528 0 0 0 .347.265l.067.042a3.1 3.1 0 0 0 .22.118l.004.001c.076.035.154.066.233.094.025.009.05.016.076.024a2.485 2.485 0 0 0 .438.098l.08.011c.087.008.174.014.262.014h8.42a2.573 2.573 0 0 0 1.81-.741 2.58 2.58 0 0 0 .728-1.362l1.363-7.199a.974.974 0 0 1 .05-.172l.02-.048c.018-.039.037-.077.06-.114l.025-.043a1.05 1.05 0 0 1 .105-.134 1.044 1.044 0 0 1 .529-.295c.027-.006.055-.01.083-.014.027-.004.054-.009.081-.01a.974.974 0 0 1 .18.004c.451.052.907.099 1.364.143l.344.032c.457.041.915.08 1.377.113h.006a70.066 70.066 0 0 0 1.743.101 72.297 72.297 0 0 0 3.54.084 78.17 78.17 0 0 0 4.33-.121l.148-.009a82.84 82.84 0 0 0 1.358-.091 77.036 77.036 0 0 0 2.895-.275l.009-.001c.439-.051.877-.105 1.315-.162.211-.028.422-.06.633-.09.232-.033.464-.063.696-.098.469-.072.911.192 1.09.613l.008.016c.025.061.044.126.057.194l.717 3.788.717 3.788a2.583 2.583 0 0 0 2.538 2.103h8.42c.088 0 .175-.005.261-.014l.081-.011a2.54 2.54 0 0 0 .438-.098c.026-.008.051-.015.076-.024.08-.028.158-.059.234-.094l.001-.001c.076-.035.15-.075.222-.118l.067-.042c.049-.032.097-.064.144-.099l.07-.053c.046-.036.091-.074.134-.113l.058-.052c.06-.058.118-.118.173-.181.021-.025.04-.052.06-.077a2.506 2.506 0 0 0 .518-1.125l.567-3.004.59-3.122.37-1.958 1.062-5.626.095-.504.42-.208c.006.002.01.001.014-.001l.008-.006c.202-.105.4-.215.599-.322.209-.112.42-.222.627-.337.179-.1.354-.204.531-.306.223-.128.448-.253.668-.384.181-.108.357-.221.536-.331.211-.129.424-.257.632-.389.187-.119.369-.243.553-.365.195-.128.393-.255.586-.386.182-.124.359-.254.539-.38.189-.134.381-.265.568-.401.174-.127.342-.259.514-.388.186-.141.376-.28.56-.424.166-.13.327-.265.491-.397.183-.148.368-.294.548-.444.166-.139.326-.283.488-.424.172-.149.348-.297.517-.449.158-.142.309-.288.464-.433.168-.156.339-.311.504-.47.15-.145.294-.295.442-.443.163-.163.328-.324.488-.49.145-.151.283-.307.425-.46.156-.167.314-.333.465-.503.139-.156.27-.316.406-.474.148-.173.3-.344.445-.52.131-.16.256-.325.385-.488.141-.178.286-.355.423-.536.127-.167.246-.339.37-.508.132-.182.268-.362.396-.547.121-.173.234-.351.351-.526.124-.186.251-.37.371-.559.15-.235.286-.478.435-.713.089-.139.172-.281.255-.424a3.648 3.648 0 0 1 2.034-1.655l.029-.009 4.124-1.321 3.96-1.268a4.95 4.95 0 0 0 3.439-4.714v-8.321a4.926 4.926 0 0 0-.63-2.41zM118.556 69.86c.256-1.214 1.097-2.225 2.226-2.742 4.339-1.986 15.393-6.765 18.235-5.276 3.559 1.864 1.695 21.988-3.728 25.06-5.238 2.966-20.437.538-16.733-17.041z" fill="#37B5FF"/><path d="M137.508 64.173c-2.474 0-8.467 2.04-15.638 5.322-.392.18-.674.518-.756.905-1.045 4.96-.486 8.951 1.617 11.543.246.304.516.589.806.856.338.31.883.136.996-.31 2.493-9.87 14.588-18.316 12.975-18.316z" fill="#006DB7"/><path fill-rule="evenodd" clip-rule="evenodd" d="M102.333 75.742a22.467 22.467 0 0 1-9.145 1.932c-12.453 0-22.548-10.096-22.548-22.549s10.095-22.548 22.548-22.548c7.056 0 13.354 3.24 17.489 8.315a22.458 22.458 0 0 1 5.059 14.233 22.469 22.469 0 0 1-7.168 16.489 22.45 22.45 0 0 1-6.235 4.128z" fill="#37B5FF"/><path d="M116.09 56.2c0 6.352-2.415 10.961-6.252 14.028C105.943 73.34 100.403 75 94 75c-6.404 0-12.082-1.66-16.11-4.79-3.968-3.081-6.482-7.692-6.482-14.01 0-12.79 10.057-23.06 22.341-23.06S116.09 43.41 116.09 56.2z" stroke="#006DB7" stroke-width="4"/><path d="M92.67 66.313c-3.897-.063-6.537-2.169-6.537-3.709 0-.754.66-1.791 1.445-1.791 1.037 0 1.886 2.2 5.091 2.451V55.88c-2.828-1.005-5.97-2.137-5.97-6.16 0-3.96 2.985-5.53 5.97-5.845v-.911c0-.377.377-.723.912-.723.471 0 .943.346.943.723v.849c2.136.063 5.154.722 5.154 2.262 0 .597-.44 1.791-1.383 1.791-.754 0-1.572-1.005-3.771-1.162v6.38c2.734 1.005 5.719 2.387 5.719 6.661 0 3.866-2.325 6.003-5.72 6.474v1.069c0 .377-.47.722-.942.722-.534 0-.912-.345-.912-.722v-.975zm.188-13.828v-5.72c-1.76.22-3.017 1.006-3.017 2.64 0 1.792 1.351 2.451 3.017 3.08zm1.477 4.085v6.631c1.697-.314 2.765-1.32 2.765-3.111 0-1.98-1.225-2.86-2.765-3.52z" fill="#fff"/><path d="M140.862 96.094a1.782 1.782 0 1 0-3.565 0 2.266 2.266 0 0 1-2.264 2.263 2.266 2.266 0 0 1-2.263-2.263 1.782 1.782 0 1 0-3.565 0 5.836 5.836 0 0 0 5.828 5.829 5.836 5.836 0 0 0 5.829-5.829z" fill="#006DB7"/><path d="M155.812 94.603l-5.017-1.607a2.1 2.1 0 0 1-1.355-1.373 32.332 32.332 0 0 0-4.743-9.381 34.376 34.376 0 0 0-3.168-3.738c.74-3.247 1.142-6.922 1.09-10.097-.075-4.542-.982-7.206-2.775-8.145-.965-.506-3.903-2.044-19.805 5.235a5.778 5.778 0 0 0-1.053.628 68.884 68.884 0 0 0-3.271-.794c-.132-.029-.269-.054-.403-.083a24.267 24.267 0 0 0 2.182-9.028 1.782 1.782 0 1 0-3.561-.16 20.715 20.715 0 0 1-6.061 13.749 20.645 20.645 0 0 1-7.51 4.797 51.693 51.693 0 0 0-14.348 0 20.636 20.636 0 0 1-7.51-4.797 20.63 20.63 0 0 1-6.082-14.683 20.63 20.63 0 0 1 6.082-14.684 20.63 20.63 0 0 1 14.684-6.083 20.63 20.63 0 0 1 14.684 6.083 20.768 20.768 0 0 1 3.871 5.345 1.783 1.783 0 1 0 3.184-1.603 24.302 24.302 0 0 0-4.534-6.263 24.173 24.173 0 0 0-17.205-7.127 24.168 24.168 0 0 0-17.204 7.127 24.172 24.172 0 0 0-7.127 17.204c0 6.5 2.531 12.61 7.127 17.205a24.315 24.315 0 0 0 4.293 3.42 50.312 50.312 0 0 0-3.295.975 1.783 1.783 0 0 0 1.13 3.382c9.722-3.25 20.43-3.25 30.152 0a1.781 1.781 0 0 0 2.256-1.126 1.783 1.783 0 0 0-1.125-2.256 50.119 50.119 0 0 0-3.297-.975 24.323 24.323 0 0 0 7.402-7.235 68.26 68.26 0 0 1 3.369.745c-.02.078-.041.155-.057.234-.869 4.125-.813 7.774.168 10.844.881 2.76 2.472 4.996 4.727 6.646 2.658 1.944 5.867 2.784 8.774 2.784 2.188 0 4.205-.476 5.687-1.315 1.675-.949 3.079-2.949 4.19-5.951.514.6 1.001 1.214 1.46 1.842a28.78 28.78 0 0 1 4.221 8.35 5.671 5.671 0 0 0 3.668 3.697L154.725 98a3.157 3.157 0 0 1 2.201 3.015v8.32a3.158 3.158 0 0 1-2.201 3.016l-8.084 2.589a5.513 5.513 0 0 0-3.082 2.503c-3.176 5.489-8.169 10.031-14.842 13.5a2.795 2.795 0 0 0-1.465 1.969l-2.589 13.709a.802.802 0 0 1-.787.652h-8.418a.802.802 0 0 1-.787-.652l-1.434-7.577a2.8 2.8 0 0 0-3.185-2.252 74.567 74.567 0 0 1-11.105.826c-2.785 0-5.533-.156-8.17-.462a2.823 2.823 0 0 0-3.09 2.266l-1.362 7.199a.801.801 0 0 1-.787.652H77.12a.804.804 0 0 1-.788-.658l-2.493-12.948a2.797 2.797 0 0 0-1.438-1.946c-11.374-6.073-17.386-16.217-17.386-29.337 0-6.629 1.45-12.49 4.31-17.422 2.669-4.603 6.567-8.409 11.586-11.312a1.783 1.783 0 0 0-1.785-3.086c-9.732 5.63-15.602 14.315-17.218 25.346-.171-.016-.343-.03-.514-.049a8.876 8.876 0 0 0-.653-3.556c-1.035-2.571-3.159-4.427-5.413-4.727-1.776-.238-3.466.516-4.64 2.066-1.7 2.247-1.423 4.026-.89 5.122.897 1.85 3.205 3.159 7.035 3.981a6.998 6.998 0 0 1-.348.475c-2.263 2.838-4.929 3.466-6.66 3.525-1.014.035-1.825.848-1.825 1.862v.009c0 1 .79 1.816 1.789 1.862.127.006.261.009.4.009 2.191 0 5.707-.808 9.084-5.043.533-.669.968-1.374 1.302-2.103.336.038.66.07.97.1a45.82 45.82 0 0 0-.095 2.941c0 7.423 1.77 14.042 5.26 19.673 3.217 5.191 7.824 9.442 13.697 12.639l2.423 12.588a4.37 4.37 0 0 0 4.29 3.554h8.418a4.37 4.37 0 0 0 4.29-3.554l1.232-6.51a75.14 75.14 0 0 0 7.887.409 78.36 78.36 0 0 0 10.922-.761l1.299 6.862a4.37 4.37 0 0 0 4.29 3.554h8.418a4.37 4.37 0 0 0 4.29-3.555l2.521-13.347c7.121-3.766 12.489-8.713 15.958-14.707.25-.433.635-.75 1.084-.893l8.083-2.59a6.712 6.712 0 0 0 4.679-6.411v-8.32a6.712 6.712 0 0 0-4.679-6.411zm-17.026-21.186c-.686 5.867-2.526 10.886-4.376 11.934-2.102 1.19-6.955 1.42-10.598-1.245-3.648-2.668-4.862-7.467-3.512-13.877.136-.644.593-1.201 1.224-1.49 8.924-4.085 14.07-5.421 15.981-5.421.289 0 .504.03.647.086.574.612 1.327 4.09.634 10.012zm-95.78 19.791c-.185-.38.25-1.049.526-1.414.438-.578.84-.696 1.145-.696.065 0 .125.005.18.013.82.109 1.968 1.01 2.576 2.523.144.356.33.946.373 1.681-2.468-.511-4.385-1.248-4.8-2.107z" fill="#006DB7"/></g><path d="M128.982 34.04c11.242-1.614 22.392 4.315 26.408 14.939l16.346 43.236a22.998 22.998 0 0 1-6.819 25.827l-30.164 25.051a23 23 0 0 1-21.117 4.391L65.12 133.376c-11.366-3.305-18.367-14.697-16.182-26.33l4.434-23.61a23 23 0 0 0 .218-7.09l-2.044-16.398c-1.951-15.659 12.128-28.762 27.796-26.88 14.918 1.79 32.43 3.005 46.328 1.404 1.048-.121 2.161-.268 3.312-.433z" fill="#37B5FF" fill-opacity=".136"/><defs><clipPath id="clip0"><path fill="#fff" transform="translate(38 29.57)" d="M0 0h122.491v122.491H0z"/></clipPath></defs></svg>