<svg width="125" height="125" fill="none" xmlns="http://www.w3.org/2000/svg"><circle cx="35.531" cy="35.875" r="8.375" stroke="#006DB7"/><mask id="a" fill="#fff"><path fill-rule="evenodd" clip-rule="evenodd" d="M51.063 53.797v6.484H20v-6.484a21.022 21.022 0 0 1 15.531-6.828 21.02 21.02 0 0 1 15.532 6.828z"/></mask><path fill-rule="evenodd" clip-rule="evenodd" d="M51.063 53.797v6.484H20v-6.484a21.022 21.022 0 0 1 15.531-6.828 21.02 21.02 0 0 1 15.532 6.828z" fill="#006DB7"/><path d="M51.063 53.797h1v-.39l-.264-.287-.736.677zm0 6.484v1h1v-1h-1zm-31.063 0h-1v1h1v-1zm0-6.484l-.737-.677-.263.287v.39h1zm30.063 0v6.484h2v-6.484h-2zm1 5.484H20v2h31.063v-2zm-30.063 1v-6.484h-2v6.484h2zm-.263-5.808a20.02 20.02 0 0 1 14.794-6.504v-2a22.022 22.022 0 0 0-16.268 7.151l1.474 1.353zm14.794-6.504a20.022 20.022 0 0 1 14.795 6.504l1.473-1.353a22.022 22.022 0 0 0-16.268-7.151v2z" fill="#006DB7" mask="url(#a)"/><circle cx="88.781" cy="35.875" r="8.375" stroke="#006DB7"/><mask id="b" fill="#fff"><path fill-rule="evenodd" clip-rule="evenodd" d="M104.312 53.797v6.484H73.25v-6.484a21.022 21.022 0 0 1 15.531-6.828 21.02 21.02 0 0 1 15.531 6.828z"/></mask><path fill-rule="evenodd" clip-rule="evenodd" d="M104.312 53.797v6.484H73.25v-6.484a21.022 21.022 0 0 1 15.531-6.828 21.02 21.02 0 0 1 15.531 6.828z" fill="#006DB7"/><path d="M104.312 53.797h1v-.39l-.263-.287-.737.677zm0 6.484v1h1v-1h-1zm-31.062 0h-1v1h1v-1zm0-6.484l-.737-.677-.263.287v.39h1zm30.062 0v6.484h2v-6.484h-2zm1 5.484H73.25v2h31.062v-2zm-30.062 1v-6.484h-2v6.484h2zm-.263-5.808a20.02 20.02 0 0 1 14.794-6.504v-2a22.022 22.022 0 0 0-16.268 7.151l1.474 1.353zm14.794-6.504a20.023 20.023 0 0 1 14.795 6.504l1.473-1.353a22.021 22.021 0 0 0-16.268-7.151v2z" fill="#006DB7" mask="url(#b)"/><circle cx="88.781" cy="73.594" r="8.375" stroke="#006DB7"/><mask id="c" fill="#fff"><path fill-rule="evenodd" clip-rule="evenodd" d="M104.312 91.515V98H73.25v-6.485a21.022 21.022 0 0 1 15.531-6.828 21.02 21.02 0 0 1 15.531 6.828z"/></mask><path fill-rule="evenodd" clip-rule="evenodd" d="M104.312 91.515V98H73.25v-6.485a21.022 21.022 0 0 1 15.531-6.828 21.02 21.02 0 0 1 15.531 6.828z" fill="#37B5FF"/><path d="M104.312 91.515h1v-.39l-.263-.286-.737.676zm0 6.485v1h1v-1h-1zM73.25 98h-1v1h1v-1zm0-6.485l-.737-.676-.263.287v.39h1zm30.062 0V98h2v-6.485h-2zm1 5.485H73.25v2h31.062v-2zM74.25 98v-6.485h-2V98h2zm-.263-5.808a20.02 20.02 0 0 1 14.794-6.504v-2a22.023 22.023 0 0 0-16.268 7.151l1.474 1.353zm14.794-6.504a20.023 20.023 0 0 1 14.795 6.504l1.473-1.353a22.022 22.022 0 0 0-16.268-7.151v2z" fill="#006DB7" mask="url(#c)"/><circle cx="35.531" cy="73.594" r="8.375" stroke="#006DB7"/><mask id="d" fill="#fff"><path fill-rule="evenodd" clip-rule="evenodd" d="M51.063 91.515V98H20v-6.485a21.022 21.022 0 0 1 15.531-6.828 21.023 21.023 0 0 1 15.532 6.828z"/></mask><path fill-rule="evenodd" clip-rule="evenodd" d="M51.063 91.515V98H20v-6.485a21.022 21.022 0 0 1 15.531-6.828 21.023 21.023 0 0 1 15.532 6.828z" fill="#006DB7"/><path d="M51.063 91.515h1v-.39l-.264-.286-.736.676zm0 6.485v1h1v-1h-1zM20 98h-1v1h1v-1zm0-6.485l-.737-.676-.263.287v.39h1zm30.063 0V98h2v-6.485h-2zm1 5.485H20v2h31.063v-2zM21 98v-6.485h-2V98h2zm-.263-5.808a20.02 20.02 0 0 1 14.794-6.504v-2a22.023 22.023 0 0 0-16.268 7.151l1.474 1.353zm14.794-6.504a20.023 20.023 0 0 1 14.795 6.504l1.473-1.353a22.023 22.023 0 0 0-16.268-7.151v2z" fill="#006DB7" mask="url(#d)"/><circle cx="62.156" cy="55.844" r="8.375" stroke="#006DB7"/><mask id="e" fill="#fff"><path fill-rule="evenodd" clip-rule="evenodd" d="M77.688 73.765v6.485H46.624v-6.485a21.022 21.022 0 0 1 15.531-6.828 21.023 21.023 0 0 1 15.532 6.828z"/></mask><path fill-rule="evenodd" clip-rule="evenodd" d="M77.688 73.765v6.485H46.624v-6.485a21.022 21.022 0 0 1 15.531-6.828 21.023 21.023 0 0 1 15.532 6.828z" fill="#006DB7"/><path d="M77.688 73.765h1v-.39l-.264-.286-.737.676zm0 6.485v1h1v-1h-1zm-31.063 0h-1v1h1v-1zm0-6.485l-.737-.676-.263.287v.39h1zm30.063 0v6.485h2v-6.485h-2zm1 5.485H46.624v2h31.063v-2zm-30.063 1v-6.485h-2v6.485h2zm-.263-5.808a20.02 20.02 0 0 1 14.794-6.504v-2a22.023 22.023 0 0 0-16.268 7.151l1.474 1.353zm14.794-6.504a20.023 20.023 0 0 1 14.795 6.504l1.473-1.353a22.023 22.023 0 0 0-16.268-7.151v2z" fill="#006DB7" mask="url(#e)"/><path d="M83.581 39.147c8.8-.694 17.285 4.085 20.115 12.447l7.336 21.67a23.001 23.001 0 0 1-7.75 25.595l-13.006 10.018a22.999 22.999 0 0 1-21.232 3.624l-21.355-7.035c-11.25-3.706-17.845-15.348-15.24-26.902l1.712-7.6c.508-2.253.663-4.573.458-6.874-1.353-15.239 12.753-27.358 27.958-25.663 7.225.806 14.66 1.22 21.004.72z" fill="#37B5FF" fill-opacity=".136"/></svg>