<svg width="125" height="125" fill="none" xmlns="http://www.w3.org/2000/svg"><g clip-path="url(#clip0)"><g clip-path="url(#clip1)"><path d="M27.083 92.833v-45.5h71.834v45.5c0 3.94-3.227 7.167-7.167 7.167h-57.5c-3.94 0-7.167-3.226-7.167-7.167z" stroke="#006DB7"/><path d="M98.917 39.167v11H27.083v-11c0-3.94 3.226-7.167 7.167-7.167h57.5c3.94 0 7.167 3.226 7.167 7.167z" fill="#006DB7" stroke="#006DB7"/><path d="M85.5 39.167a5.25 5.25 0 1 1-10.5 0 5.25 5.25 0 0 1 10.5 0zm-34.5 0a5.25 5.25 0 1 1-10.5 0 5.25 5.25 0 0 1 10.5 0z" fill="#F8F8F8" stroke="#006DB7"/><path d="M76.917 29.583a3.345 3.345 0 0 1 3.333-3.333 3.345 3.345 0 0 1 3.333 3.333v9.584A3.345 3.345 0 0 1 80.25 42.5a3.345 3.345 0 0 1-3.333-3.333v-9.584z" fill="#006DB7" stroke="#006DB7"/><path d="M45.75 25.75a3.845 3.845 0 0 0-3.833 3.833v9.584A3.845 3.845 0 0 0 45.75 43a3.845 3.845 0 0 0 3.833-3.833v-9.584a3.845 3.845 0 0 0-3.833-3.833z" fill="#006DB7"/><path d="M42.417 65.5v-6.667h6.666V65.5h-6.666zm11.5 0v-6.667h6.666V65.5h-6.666zm11.5 0v-6.667h6.666V65.5h-6.666zm11.5 0v-6.667h6.666V65.5h-6.666zM42.417 77v-6.667h6.666V77h-6.666zm11.5 0v-6.667h6.666V77h-6.666z" stroke="#006DB7"/><path d="M65.417 77v-6.667h6.666V77h-6.666z" fill="#37B5FF" stroke="#006DB7"/><path d="M76.917 77v-6.667h6.666V77h-6.666zm-34.5 11.5v-6.667h6.666V88.5h-6.666zm11.5 0v-6.667h6.666V88.5h-6.666zm11.5 0v-6.667h6.666V88.5h-6.666zm11.5 0v-6.667h6.666V88.5h-6.666z" stroke="#006DB7"/></g><path d="M70.764 15.927c9.918-.782 19.48 4.604 22.67 14.027l8.935 26.398a23 23 0 0 1-7.75 25.595L77.084 95.454A22.998 22.998 0 0 1 55.85 99.08l-28.053-9.243C16.547 86.13 9.953 74.488 12.556 62.934l2.586-11.474c.524-2.325.684-4.718.473-7.092l-.293-3.3C13.927 25.348 28.473 12.81 44.13 14.765c9.044 1.13 18.614 1.794 26.633 1.161z" fill="#37B5FF" fill-opacity=".136"/></g><defs><clipPath id="clip0"><path fill="#fff" d="M0 0h125v125H0z"/></clipPath><clipPath id="clip1"><path fill="#fff" transform="translate(26 25)" d="M0 0h74v76H0z"/></clipPath></defs></svg>