<svg width="200" height="180" fill="none" xmlns="http://www.w3.org/2000/svg"><path fill="#fff" d="M0 0h200v180H0z"/><path d="M53.6 114.833h10.667a2.5 2.5 0 0 1 2.5 2.5v20.634H51.1v-20.634a2.5 2.5 0 0 1 2.5-2.5zm28-16.8h10.667a2.5 2.5 0 0 1 2.5 2.5v37.434H79.1v-37.434a2.5 2.5 0 0 1 2.5-2.5zm28-14.933h10.667a2.5 2.5 0 0 1 2.5 2.5v52.367H107.1V85.6a2.5 2.5 0 0 1 2.5-2.5z" fill="#006DB7" stroke="#006DB7" stroke-width="3"/><path d="M137.6 68.167h10.667a2.5 2.5 0 0 1 2.5 2.5v67.3H135.1v-67.3a2.5 2.5 0 0 1 2.5-2.5z" fill="#37B5FF" stroke="#006DB7" stroke-width="3"/><path d="M154.133 141H45.867c-1.03 0-1.867-1.341-1.867-3s.836-3 1.867-3h108.266c1.031 0 1.867 1.341 1.867 3s-.836 3-1.867 3z" fill="#DDD"/><path d="M58.99 85.95a1.867 1.867 0 0 1-.935-3.483l72.745-42a1.866 1.866 0 1 1 1.867 3.232l-72.746 42c-.293.17-.616.25-.932.25z" fill="#006DB7"/><path d="M131.735 43.95a1.94 1.94 0 0 1-.183-.01l-15.982-1.55a1.865 1.865 0 0 1-1.676-2.038 1.857 1.857 0 0 1 2.038-1.676l15.982 1.55a1.866 1.866 0 0 1-.179 3.723z" fill="#006DB7"/><path d="M125.082 58.565a1.864 1.864 0 0 1-1.698-2.64l6.649-14.615a1.862 1.862 0 0 1 2.471-.926 1.865 1.865 0 0 1 .926 2.471l-6.649 14.617a1.863 1.863 0 0 1-1.699 1.093z" fill="#006DB7"/><path d="M67.455 57.04c-11.243-1.614-22.392 4.315-26.409 14.939L24.7 115.215a22.999 22.999 0 0 0 6.82 25.827l30.164 25.051a23 23 0 0 0 21.116 4.391l48.516-14.108c11.366-3.305 18.367-14.697 16.183-26.33l-4.435-23.61a23.012 23.012 0 0 1-.218-7.09l2.044-16.398c1.952-15.659-12.128-28.762-27.796-26.88-14.918 1.79-32.43 3.005-46.328 1.404a121.63 121.63 0 0 1-3.311-.433z" fill="#37B5FF" fill-opacity=".136"/></svg>