<svg width="100" height="100" fill="none" xmlns="http://www.w3.org/2000/svg"><path d="M64.188 14H36.811C24.215 14 14 24.215 14 36.813v27.374C14 76.785 24.215 87 36.813 87h27.374C76.785 87 87 76.785 87 64.187V36.814C87 24.215 76.785 14 64.187 14zm15.968 50.188c0 8.805-7.163 15.968-15.969 15.968H36.814c-8.806 0-15.97-7.163-15.97-15.969V36.814c0-8.806 7.164-15.97 15.97-15.97h27.374c8.806 0 15.97 7.164 15.97 15.97v27.374z" fill="#fff"/><path d="M50.5 32.25c-10.079 0-18.25 8.171-18.25 18.25s8.171 18.25 18.25 18.25 18.25-8.171 18.25-18.25-8.171-18.25-18.25-18.25zm0 29.656c-6.287 0-11.406-5.119-11.406-11.406 0-6.292 5.119-11.406 11.406-11.406 6.287 0 11.406 5.114 11.406 11.406 0 6.287-5.119 11.406-11.406 11.406zm19.619-28.593a2.432 2.432 0 1 0 0-4.863 2.432 2.432 0 0 0 0 4.863z" fill="#fff"/></svg>