<svg width="200" height="180" fill="none" xmlns="http://www.w3.org/2000/svg"><path fill="#fff" d="M0 0h200v180H0z"/><g clip-path="url(#clip0)"><path d="M55.525 118.721v-.09l-.011-.089-1.26-10.463 4.081-.578 82.006-.001 4.082.579-1.26 10.463-.011.089v13.49H55.525v-13.4z" fill="#fff" stroke="#006DB7" stroke-width="3"/><path d="M110.532 65.317c-1.97 0-3.939-.75-5.439-2.248-2.998-3-2.998-7.878 0-10.877 2.999-2.999 7.878-2.999 10.878 0 2.998 2.999 2.998 7.878 0 10.877a7.674 7.674 0 0 1-5.439 2.248z" fill="#E10E4B"/><mask id="a" fill="#fff"><path fill-rule="evenodd" clip-rule="evenodd" d="M99.535 65.374a8.918 8.918 0 0 1-5.786-2.12 7.67 7.67 0 0 1-5.248 2.063c-1.97 0-3.939-.75-5.439-2.248-2.999-3-2.999-7.878 0-10.877 2.534-2.534 6.41-2.927 9.36-1.179a9.16 9.16 0 0 1 .79-.904c3.488-3.487 9.162-3.487 12.649 0 .282.282.542.579.778.887 2.946-1.728 6.806-1.33 9.332 1.196 2.998 2.999 2.998 7.878 0 10.877a7.674 7.674 0 0 1-5.439 2.248 7.669 7.669 0 0 1-5.228-2.045 8.891 8.891 0 0 1-4.233 1.971 9.017 9.017 0 0 1-1.534.132h-.002z"/></mask><path fill-rule="evenodd" clip-rule="evenodd" d="M99.535 65.374a8.918 8.918 0 0 1-5.786-2.12 7.67 7.67 0 0 1-5.248 2.063c-1.97 0-3.939-.75-5.439-2.248-2.999-3-2.999-7.878 0-10.877 2.534-2.534 6.41-2.927 9.36-1.179a9.16 9.16 0 0 1 .79-.904c3.488-3.487 9.162-3.487 12.649 0 .282.282.542.579.778.887 2.946-1.728 6.806-1.33 9.332 1.196 2.998 2.999 2.998 7.878 0 10.877a7.674 7.674 0 0 1-5.439 2.248 7.669 7.669 0 0 1-5.228-2.045 8.891 8.891 0 0 1-4.233 1.971 9.017 9.017 0 0 1-1.534.132h-.002z" fill="#37B5FF"/><path d="M93.749 63.253l1.943-2.285-2.036-1.732L91.7 61.06l2.048 2.192zm5.786 2.121l.046-3h-.046v3zM83.062 63.07l-2.122 2.12.002.002 2.12-2.123zm0-10.877l-2.121-2.122 2.121 2.122zm9.36-1.179l-1.529 2.581 2.296 1.36 1.618-2.121-2.385-1.82zm.79-.904l-2.12-2.12h-.001l2.122 2.12zm12.649 0l2.122-2.12-2.122 2.12zm.778.887l-2.381 1.826 1.613 2.102 2.286-1.34-1.518-2.588zm9.332 1.196l2.121-2.121-2.121 2.121zm0 10.877l2.12 2.123.001-.002-2.121-2.12zm-10.667.203l2.039-2.2-1.947-1.806-2.029 1.714 1.937 2.292zm-4.233 1.971l.511 2.956-.511-2.956zm-9.266.296a11.918 11.918 0 0 0 7.73 2.835v-6a5.918 5.918 0 0 1-3.843-1.406l-3.887 4.57zm-3.304 2.778a10.67 10.67 0 0 0 7.295-2.871l-4.095-4.385a4.67 4.67 0 0 1-3.2 1.257v6zm-7.56-3.125a10.672 10.672 0 0 0 7.56 3.126v-6a4.672 4.672 0 0 1-3.319-1.371l-4.24 4.245zm0-15.121c-4.17 4.17-4.17 10.949 0 15.12l4.243-4.243a4.7 4.7 0 0 1 0-6.635l-4.243-4.242zm13.01-1.64c-4.098-2.427-9.482-1.888-13.01 1.64l4.242 4.243a4.706 4.706 0 0 1 5.71-.72l3.058-5.162zm-2.86-.443c-.382.382-.733.785-1.054 1.205l4.77 3.64c.16-.209.335-.41.527-.602l-4.243-4.243zm16.892 0c-4.659-4.658-12.233-4.658-16.892 0l4.243 4.243a5.955 5.955 0 0 1 8.406 0l4.243-4.243zm1.037 1.182a12.003 12.003 0 0 0-1.037-1.182l-4.243 4.243c.189.189.362.386.518.59l4.762-3.65zm9.072.9c-3.517-3.516-8.878-4.062-12.971-1.662l3.036 5.176a4.705 4.705 0 0 1 5.692.73l4.243-4.244zm0 15.12c4.17-4.17 4.17-10.949 0-15.12l-4.243 4.243a4.7 4.7 0 0 1 0 6.635l4.243 4.242zm-7.56 3.127c2.73 0 5.472-1.04 7.559-3.125l-4.241-4.245a4.67 4.67 0 0 1-3.318 1.37v6zm-7.268-2.845a10.67 10.67 0 0 0 7.268 2.846v-6a4.67 4.67 0 0 1-3.189-1.246l-4.079 4.4zm-1.682 2.727a11.883 11.883 0 0 0 5.658-2.636l-3.873-4.583a5.884 5.884 0 0 1-2.806 1.307l1.021 5.912zm-2.045.175c.684 0 1.368-.058 2.045-.175l-1.021-5.912a6.028 6.028 0 0 1-1.024.087v6zm-.049 0h.049v-6h.044l-.093 6z" fill="#006DB7" mask="url(#a)"/><path d="M54.025 124.186h90.627v9.435H54.025v-9.435z" fill="#DEECF1"/><path d="M54.025 124.186h90.627v9.435H54.025v-9.435z" fill="#006DB7"/><path d="M99.5 124.186h45.152v9.435H99.5v-9.435z" fill="#006DB7"/><path d="M134.381 75.501L133.008 93.5H66.026l-1.404-17.944 69.759-.055z" fill="#fff" stroke="#006DB7" stroke-width="3"/><path d="M137.67 82.749h-2.841c-3.063 0-4.75-1.123-5.982-1.942-.96-.639-1.488-.991-2.834-.991-1.345 0-1.873.352-2.834.99-1.231.82-2.918 1.943-5.981 1.943-3.063 0-4.75-1.123-5.982-1.942-.96-.639-1.488-.991-2.834-.991-1.345 0-1.874.352-2.833.99-1.232.82-2.919 1.943-5.982 1.943s-4.75-1.123-5.981-1.942c-.96-.639-1.49-.991-2.834-.991-1.346 0-1.874.352-2.834.99-1.232.82-2.92 1.943-5.982 1.943-3.063 0-4.75-1.123-5.982-1.942-.96-.639-1.49-.991-2.834-.991-1.345 0-1.874.352-2.834.99-1.232.82-2.92 1.943-5.982 1.943h-2.842v-9.58c0-7.743 6.3-14.043 14.043-14.043h48.123c7.743 0 14.043 6.3 14.043 14.044v9.579h-.001z" fill="#006DB7"/><path d="M105.548 80.807c.96-.639 1.489-.991 2.834-.991s1.874.352 2.834.99c1.232.82 2.919 1.943 5.982 1.943s4.749-1.123 5.981-1.942c.96-.639 1.489-.991 2.834-.991s1.874.352 2.834.99c1.231.82 2.918 1.943 5.982 1.943h2.841v-9.58c0-7.743-6.3-14.043-14.043-14.043H99.5v23.62c.023.001.044.003.067.003 3.063 0 4.75-1.123 5.981-1.942zM148 113.049h-2.842c-3.28 0-5.505-.886-7.468-1.668-1.703-.679-3.174-1.264-5.364-1.264-2.022 0-2.906.473-4.128 1.129-1.499.803-3.365 1.803-6.814 1.803s-5.314-1-6.813-1.803c-1.223-.656-2.107-1.129-4.129-1.129-2.021 0-2.904.473-4.127 1.128-1.499.804-3.364 1.804-6.814 1.804-3.448 0-5.314-1-6.813-1.804-1.223-.656-2.106-1.129-4.128-1.129-2.022 0-2.906.473-4.129 1.129-1.498.804-3.364 1.804-6.814 1.804-3.448 0-5.314-1-6.813-1.804-1.223-.656-2.106-1.129-4.129-1.129-2.19 0-3.662.586-5.365 1.265-1.963.782-4.188 1.668-7.468 1.668H51v-9.58c0-7.743 6.3-14.042 14.043-14.042h68.914c7.743 0 14.043 6.3 14.043 14.042v9.58z" fill="#006DB7"/><path d="M133.957 89.427H99.5v23.622h.001c3.45 0 5.315-1 6.814-1.804 1.223-.656 2.106-1.129 4.127-1.129 2.022 0 2.906.473 4.129 1.129 1.499.804 3.364 1.804 6.813 1.804s5.315-1 6.814-1.804c1.222-.656 2.106-1.129 4.128-1.129 2.19 0 3.661.586 5.364 1.265 1.963.782 4.188 1.668 7.468 1.668H148v-9.58c0-7.743-6.3-14.042-14.043-14.042z" fill="#006DB7"/></g><path d="M137.269 97.454c7.971-8.091 9.818-20.583 3.651-30.121l-25.094-38.818a22.999 22.999 0 0 0-24.833-9.842l-38.065 9.408A23 23 0 0 0 36.86 42.468l-17.442 47.42c-4.086 11.108.927 23.505 11.586 28.651l21.633 10.445a23.016 23.016 0 0 1 5.836 4.033l11.983 11.377c11.444 10.866 30.346 7.311 38.132-6.415 7.413-13.069 16.829-27.883 26.368-38.117a121.94 121.94 0 0 1 2.313-2.41z" fill="#37B5FF" fill-opacity=".136"/><defs><clipPath id="clip0"><path fill="#fff" transform="translate(51 42)" d="M0 0h97v97H0z"/></clipPath></defs></svg>