<svg width="100" height="100" fill="none" xmlns="http://www.w3.org/2000/svg"><path d="M63.887 23.011L56.937 23c-7.81 0-12.855 5.177-12.855 13.191v6.082h-6.99c-.603 0-1.092.49-1.092 1.093v8.813c0 .603.49 1.093 1.093 1.093h6.988v22.235c0 .604.49 1.093 1.093 1.093h9.118c.604 0 1.093-.49 1.093-1.093V53.271h8.172c.604 0 1.093-.489 1.093-1.093l.003-8.811a1.095 1.095 0 0 0-1.094-1.094h-8.174v-5.156c0-2.478.59-3.736 3.819-3.736l4.682-.002c.604 0 1.093-.49 1.093-1.092v-8.183c0-.603-.489-1.092-1.092-1.093z" fill="#fff"/></svg>