<svg width="331" height="331" fill="none" xmlns="http://www.w3.org/2000/svg"><path fill-rule="evenodd" clip-rule="evenodd" d="M201.315 219.406v60.815c0 4.855-3.492 8.791-7.799 8.791-4.308 0-7.8-3.936-7.8-8.791V51.753c0-12.675 13.313-19.37 21.682-10.903l3.245 3.282c32.989 33.376 45.366 85.57 31.548 133.046l-8.026 27.574v75.469c0 4.855-3.491 8.791-7.799 8.791-4.307 0-7.799-3.936-7.799-8.791v-60.815h-17.252zm0-17.023V58.338c27.566 28.757 37.79 73.036 26.054 113.36l-8.802 30.244v.441h-17.252z" fill="#fff"/><path d="M83.696 49.236a8.039 8.039 0 1 0-16.077-.118c-.215 29.442 1.709 67.058 8.04 81.293 3.28 7.375 7.772 13.141 13.713 17.533 4.234 3.131 8.997 5.409 14.184 7.138v124.849a8.039 8.039 0 1 0 16.077 0V155.082c5.187-1.729 9.949-4.007 14.184-7.138 5.94-4.392 10.432-10.158 13.713-17.533 6.331-14.235 8.255-51.851 8.04-81.293a8.04 8.04 0 0 0-16.077.118c.216 29.504-1.882 63.914-6.653 74.641-2.271 5.106-5.101 8.566-8.581 11.139-3.201 2.366-7.24 5.709-12.665 5.709-5.425 0-9.464-3.343-12.664-5.709-3.48-2.573-6.31-6.033-8.581-11.139-4.772-10.727-6.87-45.137-6.653-74.641z" fill="#fff"/><path d="M22.697 22.697h285.606v236.429H331V0H0v331h259.126v-22.697H22.697V22.697z" fill="#fff"/><path fill-rule="evenodd" clip-rule="evenodd" d="M331 274.257h-56.743V331H331v-56.743zm-17.023 17.023H291.28v22.697h22.697V291.28z" fill="#fff"/></svg>