<svg width="745" height="582" viewBox="0 0 745 582" fill="none" xmlns="http://www.w3.org/2000/svg">
<path d="M278.248 157.28C378.26 123.618 506.706 -19.6977 612.5 2.27991C741.961 29.1742 677.383 135.816 713.243 231.619C761.822 361.4 774.749 521.822 602.972 566.659C517.943 588.853 447.81 588.828 372.959 551.657C321.732 526.217 330.697 482.189 278.248 458.146C226.596 434.468 178.375 458.61 125.357 436.643C46.9844 404.17 7.80041 359.841 0.879919 293.626C-5.296 234.535 21.2704 196.724 73.2663 151.609C121.396 109.849 210.704 180.014 278.248 157.28Z" fill="url(#paint0_linear)"/>
<defs>
<linearGradient id="paint0_linear" x1="513.459" y1="142.841" x2="478.912" y2="489.604" gradientUnits="userSpaceOnUse">
<stop stop-color="#37B5FF"/>
<stop offset="1" stop-color="#006DB7"/>
</linearGradient>
</defs>
</svg>
