<svg width="200" height="180" viewBox="0 0 200 180" fill="none" xmlns="http://www.w3.org/2000/svg">
<g id="icon-save-money">
<rect width="200" height="180" fill="white"/>
<g id="Icon-SaveMoney">
<g id="piggy-bank" clip-path="url(#clip0)">
<path id="Vector" d="M155.268 96.3005L150.251 94.6935C149.05 94.309 148.118 93.3609 147.74 92.1585C141.966 73.7988 120.527 65.3673 98.9465 65.3673C73.6991 65.3673 53.2319 76.9046 53.2319 102.383C53.2319 117.067 60.434 127.352 71.5613 133.292C71.8349 133.438 72.0299 133.698 72.0885 134.002L74.5814 146.951C74.8123 148.171 75.8783 149.054 77.1197 149.054H85.5379C86.7793 149.054 87.8453 148.171 88.0762 146.951L89.4389 139.752C89.5394 139.221 90.0344 138.863 90.5712 138.925C93.2863 139.241 96.0854 139.399 98.9463 139.399C102.77 139.399 106.589 139.116 110.318 138.553C110.866 138.47 111.382 138.83 111.485 139.375L112.919 146.951C113.15 148.171 114.216 149.054 115.458 149.054H123.876C125.117 149.054 126.183 148.171 126.414 146.951L129.003 133.241C129.062 132.932 129.261 132.668 129.54 132.523C136.148 129.087 141.615 124.36 145.102 118.334C145.567 117.531 146.301 116.92 147.185 116.637L155.268 114.047C157.318 113.391 158.708 111.485 158.708 109.334V101.014C158.708 98.862 157.318 96.9567 155.268 96.3005Z" fill="#F8F8F8"/>
<g id="Group">
<path id="Vector_2" d="M158.078 98.6043C157.859 98.2136 157.591 97.8524 157.277 97.534C157.27 97.5273 157.264 97.5196 157.257 97.5129C156.712 96.9684 156.037 96.5466 155.268 96.3004L151.549 95.109V99.4845C151.549 104.92 148.085 109.752 142.937 111.498C140.596 112.248 138.572 113.731 137.089 115.691C135.273 118.092 133.116 120.249 130.683 122.163C127.816 124.42 125.882 127.65 125.33 131.257C124.936 133.828 124.63 137.286 124.436 139.23C124.286 140.726 123.029 141.865 121.526 141.865H117.359C116.118 141.865 115.052 140.982 114.821 139.762L113.387 131.472C113.284 130.928 112.767 130.568 112.219 130.65C108.491 131.214 102.77 131.496 98.9464 131.496C96.0856 131.496 90.9096 131.338 88.1945 131.023C87.6576 130.96 87.1626 131.318 87.0619 131.85L85.6992 139.524C85.4684 140.744 84.4023 141.627 83.1609 141.627H79.0211C77.7797 141.627 76.7136 140.744 76.4828 139.524L74.4653 127.526C74.4066 127.222 74.2117 126.962 73.9382 126.816C63.8268 121.418 54.5811 111.006 53.4108 98.3916C53.4108 98.3919 53.4108 98.3921 53.4108 98.3924C53.383 98.7019 53.3586 99.0139 53.3368 99.3278C53.3364 99.334 53.3361 99.3402 53.3356 99.3464C53.3335 99.3775 53.3316 99.4086 53.3297 99.4395C53.311 99.7218 53.2947 100.006 53.2813 100.291C53.2758 100.41 53.272 100.53 53.2677 100.649C53.2593 100.867 53.2507 101.085 53.2452 101.305C53.2371 101.662 53.2316 102.02 53.2316 102.383C53.2316 104.218 53.344 105.985 53.5627 107.683C53.8306 109.764 54.2593 111.74 54.8342 113.615C54.8656 113.717 54.8983 113.819 54.9306 113.921C55.0106 114.173 55.0936 114.424 55.1795 114.674C55.2137 114.774 55.2476 114.874 55.2826 114.973C55.5189 115.641 55.7749 116.294 56.0496 116.934C56.0788 117.002 56.1077 117.07 56.1374 117.138C56.2728 117.447 56.412 117.754 56.5563 118.057C56.5802 118.108 56.6051 118.157 56.629 118.207C56.7635 118.486 56.9025 118.763 57.0446 119.038C57.069 119.085 57.0929 119.133 57.1175 119.18C57.2726 119.475 57.4326 119.767 57.5963 120.055C57.6319 120.118 57.6678 120.181 57.7039 120.243C58.2338 121.163 58.8066 122.05 59.4205 122.904C59.4791 122.986 59.5389 123.067 59.5984 123.147C59.7475 123.351 59.8989 123.552 60.0525 123.751C60.113 123.829 60.1731 123.908 60.2343 123.986C60.4422 124.251 60.6528 124.513 60.8688 124.77C60.8707 124.773 60.8729 124.775 60.8748 124.777C61.0911 125.035 61.3126 125.288 61.5368 125.539C61.6047 125.615 61.6738 125.69 61.7425 125.766C61.91 125.95 62.0796 126.131 62.2514 126.312C62.3208 126.384 62.3897 126.457 62.4595 126.529C62.6947 126.771 62.9325 127.011 63.1753 127.247C63.1758 127.247 63.1765 127.248 63.177 127.248C63.4476 127.51 63.7229 127.768 64.0031 128.022C64.5631 128.529 65.1416 129.019 65.7378 129.493C66.334 129.966 66.9481 130.422 67.579 130.861C67.8945 131.081 68.2142 131.296 68.5381 131.507C68.8297 131.697 69.1257 131.883 69.4238 132.066C69.5094 132.118 69.596 132.17 69.6824 132.222C69.9077 132.358 70.1343 132.492 70.3621 132.624C70.4523 132.676 70.5422 132.728 70.6331 132.78C70.9398 132.954 71.2484 133.125 71.5614 133.292C71.6298 133.329 71.6932 133.372 71.7508 133.422C71.8028 133.467 71.8482 133.518 71.8898 133.571C71.9023 133.587 71.9131 133.604 71.9243 133.621C71.953 133.662 71.9781 133.706 72.0004 133.751C72.0092 133.769 72.0186 133.787 72.0265 133.806C72.0528 133.869 72.075 133.934 72.0884 134.003L74.5813 146.951C74.6102 147.104 74.6521 147.251 74.7057 147.392C74.7325 147.462 74.7624 147.531 74.7949 147.598C74.8275 147.666 74.8629 147.731 74.9007 147.795C74.9385 147.858 74.9791 147.92 75.0222 147.98C75.0655 148.04 75.1112 148.098 75.1591 148.154C75.2134 148.217 75.2715 148.277 75.3315 148.334C75.3504 148.352 75.3705 148.369 75.3902 148.387C75.4335 148.426 75.4777 148.464 75.5237 148.5C75.5466 148.518 75.5701 148.536 75.5938 148.553C75.6409 148.588 75.6892 148.62 75.7385 148.652C75.7607 148.666 75.7825 148.68 75.8052 148.694C75.8768 148.736 75.95 148.776 76.0256 148.812C76.0268 148.812 76.0277 148.813 76.0289 148.813C76.1045 148.848 76.1825 148.879 76.2617 148.907C76.2868 148.916 76.3124 148.923 76.3378 148.931C76.3942 148.949 76.4514 148.965 76.5093 148.979C76.5385 148.986 76.5679 148.993 76.5976 148.999C76.6562 149.011 76.7155 149.021 76.7756 149.029C76.8026 149.032 76.8294 149.037 76.8567 149.04C76.9431 149.048 77.0301 149.054 77.1184 149.054C77.1189 149.054 77.1194 149.054 77.1196 149.054H85.5377C85.9258 149.054 86.2966 148.968 86.6301 148.812C86.7636 148.75 86.8909 148.676 87.0112 148.593C87.1313 148.509 87.2445 148.416 87.3488 148.313C87.5055 148.159 87.6428 147.985 87.7567 147.794C87.9084 147.54 88.0184 147.256 88.0761 146.951L89.4388 139.752V139.752C89.45 139.692 89.468 139.635 89.4888 139.58C89.495 139.564 89.5022 139.548 89.5093 139.532C89.5268 139.493 89.5462 139.455 89.5682 139.418C89.5768 139.404 89.5852 139.389 89.5945 139.375C89.6263 139.328 89.6605 139.282 89.6993 139.241C89.8048 139.13 89.9366 139.047 90.0809 138.991C90.0948 138.986 90.1086 138.981 90.1228 138.975C90.1574 138.964 90.1921 138.954 90.228 138.946C90.2553 138.94 90.2833 138.936 90.3113 138.932C90.3383 138.928 90.3649 138.923 90.3924 138.922C90.451 138.918 90.5106 138.919 90.5711 138.926C91.0235 138.978 91.4792 139.025 91.9364 139.069C92.0508 139.08 92.1654 139.09 92.28 139.101C92.7369 139.142 93.1953 139.181 93.6566 139.214C93.6587 139.214 93.6611 139.214 93.6633 139.214C94.1245 139.247 94.5884 139.274 95.0537 139.298C95.1709 139.304 95.2882 139.31 95.4056 139.315C95.8729 139.337 96.3415 139.357 96.8126 139.37C97.5198 139.39 98.2311 139.399 98.9464 139.399C99.9024 139.399 100.858 139.382 101.812 139.347C102.301 139.329 102.789 139.306 103.276 139.278C103.325 139.275 103.375 139.271 103.424 139.269C103.867 139.243 104.31 139.214 104.751 139.181C104.762 139.18 104.772 139.179 104.782 139.178C105.751 139.104 106.716 139.013 107.677 138.903C107.68 138.902 107.683 138.902 107.686 138.902C108.125 138.851 108.563 138.797 109.001 138.74C109.212 138.712 109.423 138.68 109.634 138.65C109.866 138.617 110.098 138.587 110.33 138.552C110.799 138.48 111.241 138.744 111.42 139.165C111.422 139.17 111.426 139.175 111.428 139.181C111.453 139.242 111.472 139.307 111.485 139.375L112.202 143.163L112.919 146.951C113.15 148.171 114.216 149.054 115.457 149.054H123.875C123.876 149.054 123.876 149.054 123.877 149.054C123.965 149.054 124.052 149.049 124.138 149.04C124.166 149.037 124.192 149.033 124.219 149.029C124.279 149.021 124.339 149.011 124.397 148.999C124.427 148.993 124.456 148.987 124.485 148.98C124.544 148.966 124.601 148.949 124.657 148.931C124.683 148.923 124.708 148.916 124.733 148.907C124.813 148.879 124.891 148.848 124.967 148.813C124.967 148.813 124.968 148.812 124.968 148.812C125.044 148.777 125.118 148.737 125.19 148.694C125.212 148.681 125.234 148.666 125.257 148.652C125.306 148.62 125.354 148.588 125.401 148.553C125.425 148.536 125.448 148.518 125.471 148.5C125.517 148.464 125.562 148.426 125.605 148.387C125.624 148.37 125.644 148.353 125.663 148.335C125.723 148.277 125.781 148.217 125.836 148.154C125.857 148.129 125.876 148.102 125.896 148.077C125.968 147.987 126.035 147.894 126.094 147.795C126.17 147.668 126.236 147.533 126.289 147.392C126.343 147.251 126.385 147.104 126.414 146.952L126.981 143.948L127.571 140.826L127.941 138.868L129.003 133.242L129.098 132.738C129.273 132.651 129.343 132.616 129.518 132.53C129.524 132.532 129.528 132.531 129.532 132.529C129.535 132.528 129.537 132.525 129.54 132.523C129.742 132.418 129.94 132.308 130.139 132.201C130.348 132.089 130.559 131.979 130.766 131.864C130.945 131.764 131.12 131.66 131.297 131.558C131.52 131.43 131.745 131.305 131.965 131.174C132.146 131.066 132.322 130.953 132.501 130.843C132.712 130.714 132.925 130.586 133.133 130.454C133.32 130.335 133.502 130.211 133.686 130.089C133.881 129.961 134.079 129.834 134.272 129.703C134.454 129.579 134.631 129.449 134.811 129.323C135 129.189 135.192 129.058 135.379 128.922C135.553 128.795 135.721 128.663 135.893 128.534C136.079 128.393 136.269 128.254 136.453 128.11C136.619 127.98 136.78 127.845 136.944 127.713C137.127 127.565 137.312 127.419 137.492 127.269C137.658 127.13 137.818 126.986 137.98 126.845C138.152 126.696 138.328 126.548 138.497 126.396C138.655 126.254 138.806 126.108 138.961 125.963C139.129 125.807 139.3 125.652 139.465 125.493C139.615 125.348 139.759 125.198 139.907 125.05C140.07 124.887 140.235 124.726 140.395 124.56C140.54 124.409 140.678 124.253 140.82 124.1C140.976 123.933 141.134 123.767 141.285 123.597C141.424 123.441 141.555 123.281 141.691 123.123C141.839 122.95 141.991 122.779 142.136 122.603C142.267 122.443 142.392 122.278 142.521 122.115C142.662 121.937 142.807 121.76 142.944 121.579C143.071 121.412 143.19 121.24 143.314 121.071C143.446 120.889 143.582 120.709 143.71 120.524C143.831 120.351 143.944 120.173 144.061 119.998C144.185 119.812 144.312 119.628 144.432 119.439C144.582 119.204 144.718 118.961 144.867 118.726C144.956 118.587 145.039 118.445 145.122 118.302C145.576 117.52 146.294 116.923 147.156 116.647L147.185 116.638H147.185L151.309 115.317L155.269 114.049C157.318 113.392 158.708 111.487 158.708 109.335V101.014C158.708 100.279 158.543 99.574 158.247 98.9364C158.194 98.8235 158.138 98.7127 158.078 98.6043Z" fill="#37B5FF"/>
<path id="Vector_3" d="M118.556 69.8609C118.812 68.6456 119.653 67.635 120.782 67.1183C125.121 65.1323 136.175 60.3531 139.017 61.8418C142.576 63.706 140.712 83.8303 135.289 86.9019C130.051 89.8685 114.852 87.44 118.556 69.8609Z" fill="#37B5FF"/>
</g>
<path id="Vector_4" d="M137.508 64.1732C135.034 64.1732 129.041 66.2125 121.87 69.4953C121.478 69.6745 121.196 70.0128 121.114 70.3997C120.069 75.3596 120.628 79.3515 122.731 81.9434C122.977 82.2466 123.247 82.5317 123.537 82.7985C123.875 83.1093 124.42 82.9351 124.533 82.4899C127.026 72.6191 139.121 64.1732 137.508 64.1732Z" fill="#006DB7"/>
<g id="Group 2">
<path id="Union" fill-rule="evenodd" clip-rule="evenodd" d="M102.333 75.742C99.5381 76.9838 96.4436 77.6737 93.188 77.6737C80.7349 77.6737 70.6396 67.5785 70.6396 55.1254C70.6396 42.6723 80.7349 32.5771 93.188 32.5771C100.244 32.5771 106.542 35.8179 110.677 40.892C111.799 42.2669 112.734 43.7431 113.482 45.287C114.926 48.2601 115.736 51.5982 115.736 55.1254C115.736 61.0981 113.414 66.5283 109.623 70.5626C109.283 70.9245 108.931 71.2752 108.568 71.614C106.685 73.3731 104.573 74.7491 102.333 75.742Z" fill="#37B5FF"/>
<path id="Ellipse" d="M116.09 56.2002C116.09 62.5516 113.675 67.1611 109.838 70.2277C105.943 73.3401 100.403 75 94 75C87.5956 75 81.9177 73.3391 77.8896 70.2106C73.922 67.129 71.408 62.5182 71.408 56.2002C71.408 43.4096 81.4648 33.1408 93.749 33.1408C106.033 33.1408 116.09 43.4096 116.09 56.2002Z" stroke="#006DB7" stroke-width="4"/>
</g>
<path id="Vector_5" d="M92.6693 66.3125C88.7726 66.2496 86.1328 64.144 86.1328 62.6043C86.1328 61.85 86.7926 60.8129 87.5783 60.8129C88.6154 60.8129 89.4637 63.0127 92.6693 63.2641V55.879C89.841 54.8735 86.6984 53.7421 86.6984 49.7196C86.6984 45.7599 89.6838 44.1886 92.6693 43.8742V42.963C92.6693 42.5859 93.0464 42.2402 93.5808 42.2402C94.0521 42.2402 94.5237 42.5859 94.5237 42.963V43.8116C96.6605 43.8745 99.6776 44.5343 99.6776 46.0743C99.6776 46.6714 99.2376 47.8655 98.2948 47.8655C97.5407 47.8655 96.7235 46.8599 94.5237 46.7028V53.0821C97.2577 54.0876 100.243 55.4704 100.243 59.7444C100.243 63.6098 97.9177 65.7467 94.5237 66.2182V67.2867C94.5237 67.6637 94.0524 68.0094 93.5808 68.0094C93.0466 68.0094 92.6693 67.6637 92.6693 67.2867V66.3125ZM92.8581 52.4849V46.7657C91.0982 46.9855 89.8413 47.7712 89.8413 49.4055C89.841 51.1966 91.1922 51.8565 92.8581 52.4849ZM94.3349 56.5704V63.2012C96.0318 62.8868 97.1003 61.8813 97.1003 60.0899C97.1005 58.1102 95.8749 57.2303 94.3349 56.5704Z" fill="white"/>
<path id="Vector_6" d="M140.862 96.094C140.862 95.1093 140.064 94.3114 139.079 94.3114C138.095 94.3114 137.297 95.1095 137.297 96.094C137.297 97.3421 136.281 98.3574 135.033 98.3574C133.785 98.3574 132.77 97.3421 132.77 96.094C132.77 95.1093 131.972 94.3114 130.987 94.3114C130.003 94.3114 129.205 95.1095 129.205 96.094C129.205 99.3079 131.82 101.923 135.033 101.923C138.247 101.923 140.862 99.3077 140.862 96.094Z" fill="#006DB7"/>
<path id="Vector_7" d="M155.812 94.6028L150.795 92.9956C150.152 92.7896 149.646 92.2767 149.44 91.6233C148.383 88.2613 146.787 85.105 144.697 82.2418C143.745 80.9368 142.686 79.6906 141.529 78.5042C142.269 75.257 142.671 71.5823 142.619 68.4071C142.544 63.8651 141.637 61.2012 139.844 60.2624C138.879 59.7562 135.941 58.2183 120.039 65.4974C119.663 65.6697 119.311 65.8819 118.986 66.125C117.914 65.8369 116.818 65.5704 115.715 65.3312C115.583 65.3022 115.446 65.2766 115.312 65.2484C116.601 62.4335 117.353 59.3763 117.494 56.2202C117.538 55.2365 116.777 54.4034 115.793 54.3597C114.812 54.3108 113.976 55.0769 113.933 56.0606C113.7 61.25 111.548 66.1326 107.872 69.809C105.675 72.0055 103.103 73.601 100.362 74.6058C95.6088 73.9388 90.7671 73.9388 86.0137 74.6058C83.2725 73.601 80.7009 72.0055 78.5044 69.809C74.5823 65.8869 72.4222 60.6722 72.4222 55.1255C72.4222 49.5785 74.5823 44.364 78.5044 40.4419C82.4265 36.5196 87.6415 34.3595 93.188 34.3595C98.7345 34.3595 103.949 36.5196 107.872 40.4419C109.448 42.018 110.75 43.8166 111.743 45.7872C112.186 46.6667 113.258 47.0207 114.137 46.5777C115.016 46.1351 115.37 45.0631 114.927 44.1838C113.764 41.873 112.238 39.7661 110.393 37.9206C105.797 33.325 99.6872 30.7941 93.1882 30.7941C86.6893 30.7941 80.5791 33.325 75.9836 37.9206C71.388 42.5163 68.8571 48.6263 68.8571 55.1252C68.8571 61.6242 71.388 67.7343 75.9836 72.3299C77.3092 73.6555 78.7513 74.7955 80.2767 75.7505C79.1683 76.0386 78.0697 76.3618 76.9819 76.7254C76.0481 77.0376 75.5443 78.0475 75.8565 78.9814C76.1685 79.9152 77.1788 80.419 78.1123 80.1071C87.834 76.857 98.5424 76.857 108.264 80.1071C108.452 80.1698 108.642 80.1994 108.829 80.1994C109.575 80.1994 110.27 79.7276 110.52 78.9814C110.832 78.0477 110.328 77.0376 109.395 76.7254C108.307 76.3618 107.207 76.0381 106.098 75.7503C107.624 74.7952 109.067 73.6555 110.393 72.3299C111.566 71.1571 112.601 69.8765 113.5 68.5154C113.991 68.6109 114.479 68.7109 114.959 68.8152C115.6 68.9542 116.237 69.1035 116.869 69.2602C116.849 69.3377 116.828 69.415 116.812 69.4937C115.943 73.6194 115.999 77.2683 116.98 80.3384C117.861 83.098 119.452 85.3337 121.707 86.9838C124.365 88.9283 127.574 89.7683 130.481 89.7683C132.669 89.7683 134.686 89.2922 136.168 88.4532C137.843 87.5041 139.247 85.5043 140.358 82.5019C140.872 83.1014 141.359 83.7155 141.818 84.3442C143.678 86.8931 145.099 89.7022 146.039 92.6932C146.592 94.45 147.963 95.8323 149.707 96.3914L154.725 97.9986C156.041 98.4204 156.926 99.6321 156.926 101.014V109.334C156.926 110.716 156.041 111.928 154.725 112.35L146.641 114.939C145.348 115.354 144.253 116.243 143.559 117.442C140.383 122.931 135.39 127.473 128.717 130.942C127.947 131.343 127.413 132.061 127.252 132.911L124.663 146.62C124.591 146.998 124.26 147.272 123.876 147.272H115.458C115.073 147.272 114.742 146.997 114.671 146.62L113.237 139.043C112.955 137.553 111.557 136.563 110.052 136.791C106.426 137.339 102.689 137.617 98.9467 137.617C96.1624 137.617 93.4138 137.461 90.7767 137.155C89.3185 136.987 87.9601 137.981 87.6876 139.421L86.3249 146.62C86.2534 146.998 85.9225 147.272 85.5381 147.272H77.1199C76.7355 147.272 76.4046 146.997 76.3321 146.614L73.8393 133.666C73.6787 132.832 73.1548 132.122 72.4009 131.72C61.0268 125.647 55.0147 115.503 55.0147 102.383C55.0147 95.7543 56.465 89.8927 59.3251 84.9605C61.994 80.3578 65.8922 76.5522 70.9112 73.649C71.7634 73.156 72.0545 72.0655 71.5617 71.2131C71.0689 70.3609 69.9784 70.0703 69.126 70.5626C59.394 76.1922 53.5242 84.8777 51.9082 95.9088C51.7366 95.8933 51.5649 95.8782 51.3938 95.8605C51.4249 94.6703 51.2096 93.4693 50.7407 92.3037C49.7065 89.7329 47.582 87.8773 45.3281 87.5766C43.552 87.3388 41.8618 88.0929 40.6888 89.6427C38.9881 91.8901 39.2653 93.6686 39.7972 94.7648C40.695 96.6148 43.003 97.9235 46.833 98.7462C46.7277 98.9039 46.6119 99.0622 46.4851 99.2213C44.2221 102.059 41.5561 102.687 39.8249 102.746C38.8115 102.781 38 103.594 38 104.608V104.617C38 105.617 38.7893 106.433 39.7886 106.479C39.9165 106.485 40.0503 106.488 40.1895 106.488C42.38 106.488 45.8956 105.68 49.2732 101.445C49.8065 100.776 50.2409 100.071 50.5749 99.3422C50.9113 99.3802 51.2345 99.4127 51.5441 99.4414C51.4833 100.407 51.4498 101.386 51.4498 102.383C51.4498 109.806 53.2195 116.425 56.7092 122.056C59.927 127.247 64.534 131.498 70.4069 134.695L72.8304 147.283C73.2201 149.342 75.0242 150.837 77.1202 150.837H85.5383C87.6343 150.837 89.4384 149.342 89.8281 147.283L91.0602 140.773C93.6191 141.044 96.2684 141.182 98.9467 141.182C102.621 141.182 106.292 140.926 109.869 140.421L111.168 147.283C111.558 149.342 113.362 150.837 115.458 150.837H123.876C125.972 150.837 127.776 149.342 128.166 147.282L130.687 133.935C137.808 130.169 143.176 125.222 146.645 119.228C146.895 118.795 147.28 118.478 147.729 118.335L155.812 115.745C158.61 114.848 160.491 112.272 160.491 109.334V101.014C160.491 98.0756 158.61 95.4993 155.812 94.6028ZM138.786 73.4165C138.1 79.2841 136.26 84.3033 134.41 85.3507C132.308 86.5414 127.455 86.7713 123.812 84.106C120.164 81.4375 118.95 76.6388 120.3 70.2286C120.436 69.5848 120.893 69.0277 121.524 68.7391C130.448 64.6539 135.594 63.3177 137.505 63.3177C137.794 63.3177 138.009 63.3481 138.152 63.4041C138.726 64.0158 139.479 67.4949 138.786 73.4165ZM43.0051 93.2083C42.8207 92.8279 43.2561 92.1592 43.5322 91.7942C43.9697 91.2162 44.3729 91.098 44.6774 91.098C44.7418 91.098 44.8018 91.1032 44.8568 91.1106C45.6765 91.22 46.8248 92.1219 47.4332 93.6341C47.5765 93.9901 47.7626 94.5799 47.8062 95.3153C45.3384 94.8038 43.4212 94.0667 43.0051 93.2083Z" fill="#006DB7"/>
</g>
<path id="Rectangle" d="M128.982 34.0391C140.224 32.4264 151.374 38.355 155.39 48.979L171.736 92.2148C175.208 101.397 172.469 111.771 164.917 118.042L134.753 143.093C128.879 147.971 120.967 149.616 113.636 147.484L65.1202 133.376C53.7543 130.071 46.7529 118.679 48.9377 107.046L53.3718 83.4356C53.8109 81.0978 53.8846 78.7059 53.5904 76.3454L51.5465 59.9482C49.5946 44.289 63.6743 31.1864 79.3421 33.0674C94.26 34.8584 111.772 36.0731 125.67 34.4716C126.718 34.3508 127.831 34.2041 128.982 34.0391Z" fill="#37B5FF" fill-opacity="0.136"/>
</g>
</g>
<defs>
<clipPath id="clip0">
<rect width="122.491" height="122.491" fill="white" transform="translate(38 29.5704)"/>
</clipPath>
</defs>
</svg>
