<svg width="100" height="100" viewBox="0 0 100 100" fill="none" xmlns="http://www.w3.org/2000/svg">
<path d="M63.8873 23.0112L56.9367 23C49.1279 23 44.0815 28.1775 44.0815 36.191V42.273H37.0929C36.489 42.273 36 42.7626 36 43.3665V52.1785C36 52.7824 36.4896 53.2715 37.0929 53.2715H44.0815V75.5071C44.0815 76.111 44.5705 76.6 45.1744 76.6H54.2925C54.8964 76.6 55.3854 76.1104 55.3854 75.5071V53.2715H63.5567C64.1606 53.2715 64.6496 52.7824 64.6496 52.1785L64.6529 43.3665C64.6529 43.0765 64.5375 42.7988 64.3329 42.5936C64.1282 42.3884 63.8494 42.273 63.5595 42.273H55.3854V37.1172C55.3854 34.6392 55.9759 33.3812 59.204 33.3812L63.8862 33.3795C64.4896 33.3795 64.9786 32.8899 64.9786 32.2866V24.1041C64.9786 23.5013 64.4901 23.0123 63.8873 23.0112Z" fill="white"/>
</svg>
