<svg width="125" height="125" viewBox="0 0 125 125" fill="none" xmlns="http://www.w3.org/2000/svg">
<circle cx="35.5312" cy="35.875" r="8.375" stroke="#006DB7"/>
<mask id="path-2-inside-1" fill="white">
<path fill-rule="evenodd" clip-rule="evenodd" d="M51.0625 53.7965V60.2812H20V53.7965C23.8529 49.5995 29.3848 46.9688 35.5312 46.9688C41.6777 46.9688 47.2096 49.5995 51.0625 53.7965Z"/>
</mask>
<path fill-rule="evenodd" clip-rule="evenodd" d="M51.0625 53.7965V60.2812H20V53.7965C23.8529 49.5995 29.3848 46.9688 35.5312 46.9688C41.6777 46.9688 47.2096 49.5995 51.0625 53.7965Z" fill="#006DB7"/>
<path d="M51.0625 53.7965H52.0625V53.4071L51.7992 53.1203L51.0625 53.7965ZM51.0625 60.2812V61.2812H52.0625V60.2812H51.0625ZM20 60.2812H19V61.2812H20V60.2812ZM20 53.7965L19.2633 53.1203L19 53.4071V53.7965H20ZM50.0625 53.7965V60.2812H52.0625V53.7965H50.0625ZM51.0625 59.2812H20V61.2812H51.0625V59.2812ZM21 60.2812V53.7965H19V60.2812H21ZM20.7367 54.4728C24.4081 50.4734 29.6765 47.9688 35.5312 47.9688V45.9688C29.0932 45.9688 23.2977 48.7256 19.2633 53.1203L20.7367 54.4728ZM35.5312 47.9688C41.386 47.9688 46.6544 50.4734 50.3258 54.4728L51.7992 53.1203C47.7648 48.7256 41.9693 45.9688 35.5312 45.9688V47.9688Z" fill="#006DB7" mask="url(#path-2-inside-1)"/>
<circle cx="88.7812" cy="35.875" r="8.375" stroke="#006DB7"/>
<mask id="path-5-inside-2" fill="white">
<path fill-rule="evenodd" clip-rule="evenodd" d="M104.312 53.7965V60.2812H73.25V53.7965C77.1029 49.5995 82.6348 46.9688 88.7812 46.9688C94.9277 46.9688 100.46 49.5995 104.312 53.7965Z"/>
</mask>
<path fill-rule="evenodd" clip-rule="evenodd" d="M104.312 53.7965V60.2812H73.25V53.7965C77.1029 49.5995 82.6348 46.9688 88.7812 46.9688C94.9277 46.9688 100.46 49.5995 104.312 53.7965Z" fill="#006DB7"/>
<path d="M104.312 53.7965H105.312V53.4071L105.049 53.1203L104.312 53.7965ZM104.312 60.2812V61.2812H105.312V60.2812H104.312ZM73.25 60.2812H72.25V61.2812H73.25V60.2812ZM73.25 53.7965L72.5133 53.1203L72.25 53.4071V53.7965H73.25ZM103.312 53.7965V60.2812H105.312V53.7965H103.312ZM104.312 59.2812H73.25V61.2812H104.312V59.2812ZM74.25 60.2812V53.7965H72.25V60.2812H74.25ZM73.9867 54.4728C77.6581 50.4734 82.9265 47.9688 88.7812 47.9688V45.9688C82.3432 45.9688 76.5477 48.7256 72.5133 53.1203L73.9867 54.4728ZM88.7812 47.9688C94.636 47.9688 99.9044 50.4734 103.576 54.4728L105.049 53.1203C101.015 48.7256 95.2193 45.9688 88.7812 45.9688V47.9688Z" fill="#006DB7" mask="url(#path-5-inside-2)"/>
<circle cx="88.7812" cy="73.5938" r="8.375" stroke="#006DB7"/>
<mask id="path-8-inside-3" fill="white">
<path fill-rule="evenodd" clip-rule="evenodd" d="M104.312 91.5153V98H73.25V91.5153C77.1029 87.3183 82.6348 84.6875 88.7812 84.6875C94.9277 84.6875 100.46 87.3183 104.312 91.5153Z"/>
</mask>
<path fill-rule="evenodd" clip-rule="evenodd" d="M104.312 91.5153V98H73.25V91.5153C77.1029 87.3183 82.6348 84.6875 88.7812 84.6875C94.9277 84.6875 100.46 87.3183 104.312 91.5153Z" fill="#37B5FF"/>
<path d="M104.312 91.5153H105.312V91.1259L105.049 90.839L104.312 91.5153ZM104.312 98V99H105.312V98H104.312ZM73.25 98H72.25V99H73.25V98ZM73.25 91.5153L72.5133 90.839L72.25 91.1259V91.5153H73.25ZM103.312 91.5153V98H105.312V91.5153H103.312ZM104.312 97H73.25V99H104.312V97ZM74.25 98V91.5153H72.25V98H74.25ZM73.9867 92.1915C77.6581 88.1922 82.9265 85.6875 88.7812 85.6875V83.6875C82.3432 83.6875 76.5477 86.4444 72.5133 90.839L73.9867 92.1915ZM88.7812 85.6875C94.636 85.6875 99.9044 88.1922 103.576 92.1915L105.049 90.839C101.015 86.4444 95.2193 83.6875 88.7812 83.6875V85.6875Z" fill="#006DB7" mask="url(#path-8-inside-3)"/>
<circle cx="35.5312" cy="73.5938" r="8.375" stroke="#006DB7"/>
<mask id="path-11-inside-4" fill="white">
<path fill-rule="evenodd" clip-rule="evenodd" d="M51.0625 91.5153V98H20V91.5153C23.8529 87.3183 29.3848 84.6875 35.5312 84.6875C41.6777 84.6875 47.2096 87.3183 51.0625 91.5153Z"/>
</mask>
<path fill-rule="evenodd" clip-rule="evenodd" d="M51.0625 91.5153V98H20V91.5153C23.8529 87.3183 29.3848 84.6875 35.5312 84.6875C41.6777 84.6875 47.2096 87.3183 51.0625 91.5153Z" fill="#006DB7"/>
<path d="M51.0625 91.5153H52.0625V91.1259L51.7992 90.839L51.0625 91.5153ZM51.0625 98V99H52.0625V98H51.0625ZM20 98H19V99H20V98ZM20 91.5153L19.2633 90.839L19 91.1259V91.5153H20ZM50.0625 91.5153V98H52.0625V91.5153H50.0625ZM51.0625 97H20V99H51.0625V97ZM21 98V91.5153H19V98H21ZM20.7367 92.1915C24.4081 88.1922 29.6765 85.6875 35.5312 85.6875V83.6875C29.0932 83.6875 23.2977 86.4444 19.2633 90.839L20.7367 92.1915ZM35.5312 85.6875C41.386 85.6875 46.6544 88.1922 50.3258 92.1915L51.7992 90.839C47.7648 86.4444 41.9693 83.6875 35.5312 83.6875V85.6875Z" fill="#006DB7" mask="url(#path-11-inside-4)"/>
<circle cx="62.1562" cy="55.8438" r="8.375" stroke="#006DB7"/>
<mask id="path-14-inside-5" fill="white">
<path fill-rule="evenodd" clip-rule="evenodd" d="M77.6875 73.7653V80.25H46.625V73.7653C50.4779 69.5683 56.0098 66.9375 62.1562 66.9375C68.3027 66.9375 73.8346 69.5683 77.6875 73.7653Z"/>
</mask>
<path fill-rule="evenodd" clip-rule="evenodd" d="M77.6875 73.7653V80.25H46.625V73.7653C50.4779 69.5683 56.0098 66.9375 62.1562 66.9375C68.3027 66.9375 73.8346 69.5683 77.6875 73.7653Z" fill="#006DB7"/>
<path d="M77.6875 73.7653H78.6875V73.3759L78.4242 73.089L77.6875 73.7653ZM77.6875 80.25V81.25H78.6875V80.25H77.6875ZM46.625 80.25H45.625V81.25H46.625V80.25ZM46.625 73.7653L45.8883 73.089L45.625 73.3759V73.7653H46.625ZM76.6875 73.7653V80.25H78.6875V73.7653H76.6875ZM77.6875 79.25H46.625V81.25H77.6875V79.25ZM47.625 80.25V73.7653H45.625V80.25H47.625ZM47.3617 74.4415C51.0331 70.4422 56.3015 67.9375 62.1562 67.9375V65.9375C55.7182 65.9375 49.9227 68.6944 45.8883 73.089L47.3617 74.4415ZM62.1562 67.9375C68.011 67.9375 73.2794 70.4422 76.9508 74.4415L78.4242 73.089C74.3898 68.6944 68.5943 65.9375 62.1562 65.9375V67.9375Z" fill="#006DB7" mask="url(#path-14-inside-5)"/>
<path d="M83.5813 39.1469C92.3817 38.4526 100.866 43.2319 103.696 51.5935L111.032 73.2637C114.184 82.5752 111.069 92.8605 103.282 98.8594L90.2762 108.877C84.2368 113.529 76.2846 114.887 69.044 112.501L47.6886 105.466C36.4397 101.76 29.8441 90.1177 32.4481 78.5639L34.1608 70.9648C34.6689 68.7107 34.8235 66.3913 34.6191 64.0897C33.266 48.851 47.3723 36.7321 62.5768 38.4275C69.8015 39.2331 77.2379 39.6473 83.5813 39.1469Z" fill="#37B5FF" fill-opacity="0.136"/>
</svg>
