<svg width="100" height="100" viewBox="0 0 100 100" fill="none" xmlns="http://www.w3.org/2000/svg">
<path d="M49.7297 20C37.7479 20 28 29.7479 28 41.7296C28 56.5993 47.446 78.4289 48.2739 79.3509C49.0516 80.217 50.4093 80.2155 51.1855 79.3509C52.0135 78.4289 71.4595 56.5993 71.4595 41.7296C71.4592 29.7479 61.7114 20 49.7297 20ZM49.7297 52.6624C43.7014 52.6624 38.7971 47.758 38.7971 41.7296C38.7971 35.7012 43.7015 30.797 49.7297 30.797C55.758 30.797 60.6623 35.7014 60.6623 41.7297C60.6623 47.7581 55.758 52.6624 49.7297 52.6624Z" fill="white"/>
</svg>
