<svg width="200" height="180" viewBox="0 0 200 180" fill="none" xmlns="http://www.w3.org/2000/svg">
<g id="icon-grow-customers">
<rect width="200" height="180" fill="white"/>
<g id="Icon-GainCustomers">
<g id="graph">
<g id="Group">
<path id="Vector" d="M53.6 114.833H64.2666C65.6474 114.833 66.7666 115.953 66.7666 117.333V137.967H51.1V117.333C51.1 115.953 52.2193 114.833 53.6 114.833Z" fill="#006DB7" stroke="#006DB7" stroke-width="3"/>
<path id="Vector_2" d="M81.6 98.0333H92.2666C93.6474 98.0333 94.7666 99.1526 94.7666 100.533V137.967H79.1V100.533C79.1 99.1526 80.2193 98.0333 81.6 98.0333Z" fill="#006DB7" stroke="#006DB7" stroke-width="3"/>
<path id="Vector_3" d="M109.6 83.1H120.267C121.647 83.1 122.767 84.2193 122.767 85.6V137.967H107.1V85.6C107.1 84.2193 108.219 83.1 109.6 83.1Z" fill="#006DB7" stroke="#006DB7" stroke-width="3"/>
<path id="Vector_4" d="M137.6 68.1667H148.267C149.647 68.1667 150.767 69.2859 150.767 70.6667V137.967H135.1V70.6667C135.1 69.2859 136.219 68.1667 137.6 68.1667Z" fill="#37B5FF" stroke="#006DB7" stroke-width="3"/>
<path id="Vector_5" d="M154.133 141H45.8667C44.8363 141 44 139.659 44 138C44 136.341 44.8363 135 45.8667 135H154.133C155.164 135 156 136.341 156 138C156 139.659 155.164 141 154.133 141Z" fill="#DDDDDD"/>
<path id="Vector_6" d="M58.9893 85.9493C58.3434 85.9493 57.7162 85.6152 57.3709 85.016C56.8557 84.1219 57.1618 82.9813 58.0541 82.4661L130.8 40.4661C131.692 39.9491 132.833 40.2571 133.35 41.1493C133.865 42.0435 133.559 43.184 132.667 43.6992L59.9208 85.6992C59.6277 85.869 59.3048 85.9493 58.9893 85.9493Z" fill="#006DB7"/>
<path id="Vector_7" d="M131.735 43.9493C131.675 43.9493 131.616 43.9456 131.552 43.94L115.57 42.3906C114.545 42.2917 113.793 41.3789 113.894 40.3522C113.993 39.3274 114.896 38.5714 115.932 38.676L131.914 40.2253C132.939 40.3242 133.691 41.237 133.591 42.2637C133.497 43.2269 132.685 43.9493 131.735 43.9493Z" fill="#006DB7"/>
<path id="Vector_8" d="M125.082 58.5653C124.823 58.5653 124.562 58.5131 124.31 58.3973C123.371 57.9699 122.956 56.8648 123.384 55.9259L130.033 41.3099C130.46 40.3709 131.567 39.9528 132.504 40.384C133.443 40.8115 133.858 41.9165 133.43 42.8555L126.781 57.4715C126.471 58.1584 125.792 58.5653 125.082 58.5653Z" fill="#006DB7"/>
</g>
</g>
<path id="Rectangle" d="M67.4546 57.0391C56.2118 55.4264 45.0626 61.355 41.0461 71.979L24.7001 115.215C21.2285 124.397 23.9675 134.771 31.5194 141.042L61.6836 166.093C67.5573 170.971 75.4689 172.616 82.8003 170.484L131.316 156.376C142.682 153.071 149.683 141.679 147.499 130.046L143.064 106.436C142.625 104.098 142.552 101.706 142.846 99.3454L144.89 82.9482C146.842 67.289 132.762 54.1864 117.094 56.0674C102.176 57.8584 84.6646 59.0731 70.7664 57.4716C69.7187 57.3508 68.6048 57.2041 67.4546 57.0391Z" fill="#37B5FF" fill-opacity="0.136"/>
</g>
</g>
</svg>
