<svg width="100" height="100" viewBox="0 0 100 100" fill="none" xmlns="http://www.w3.org/2000/svg">
<path d="M64.1875 14H36.8125C24.2154 14 14 24.2154 14 36.8125V64.1875C14 76.7846 24.2154 87 36.8125 87H64.1875C76.7846 87 87 76.7846 87 64.1875V36.8125C87 24.2154 76.7846 14 64.1875 14ZM80.1562 64.1875C80.1562 72.9931 72.9931 80.1562 64.1875 80.1562H36.8125C28.0069 80.1562 20.8438 72.9931 20.8438 64.1875V36.8125C20.8438 28.0069 28.0069 20.8438 36.8125 20.8438H64.1875C72.9931 20.8438 80.1562 28.0069 80.1562 36.8125V64.1875Z" fill="white"/>
<path d="M50.5 32.25C40.4214 32.25 32.25 40.4214 32.25 50.5C32.25 60.5786 40.4214 68.75 50.5 68.75C60.5786 68.75 68.75 60.5786 68.75 50.5C68.75 40.4214 60.5786 32.25 50.5 32.25ZM50.5 61.9062C44.2129 61.9062 39.0938 56.7871 39.0938 50.5C39.0938 44.2083 44.2129 39.0938 50.5 39.0938C56.7871 39.0938 61.9062 44.2083 61.9062 50.5C61.9062 56.7871 56.7871 61.9062 50.5 61.9062Z" fill="white"/>
<path d="M70.1188 33.3131C71.4619 33.3131 72.5506 32.2243 72.5506 30.8813C72.5506 29.5382 71.4619 28.4495 70.1188 28.4495C68.7758 28.4495 67.687 29.5382 67.687 30.8813C67.687 32.2243 68.7758 33.3131 70.1188 33.3131Z" fill="white"/>
</svg>
