<svg width="100" height="100" viewBox="0 0 100 100" fill="none" xmlns="http://www.w3.org/2000/svg">
<g clip-path="url(#clip0)">
<path d="M25.7588 40.9601C26.5178 41.4957 28.8057 43.0864 32.6226 45.7314C36.4396 48.3763 39.3637 50.4129 41.395 51.8412C41.6181 51.9977 42.0923 52.3381 42.8176 52.8626C43.5431 53.3875 44.1458 53.8117 44.6255 54.1353C45.1055 54.4587 45.6858 54.8215 46.3669 55.2232C47.0478 55.6245 47.6896 55.9264 48.2923 56.1262C48.8951 56.3277 49.453 56.4275 49.9663 56.4275H50H50.0338C50.5471 56.4275 51.1053 56.3276 51.7081 56.1262C52.3105 55.9264 52.9529 55.6242 53.6332 55.2232C54.3139 54.8211 54.8942 54.4586 55.3742 54.1353C55.8542 53.8117 56.4565 53.3875 57.1822 52.8626C57.9074 52.3376 58.3821 51.9977 58.6053 51.8412C60.6585 50.4129 65.8822 46.7855 74.2747 40.9594C75.9041 39.8215 77.2654 38.4485 78.359 36.8412C79.4534 35.2347 80 33.5494 80 31.7862C80 30.3127 79.4696 29.0515 78.4092 28.0025C77.3489 26.9532 76.0932 26.4289 74.6427 26.4289H25.3569C23.6383 26.4289 22.3157 27.0092 21.3893 28.1697C20.4631 29.3305 20 30.7814 20 32.5223C20 33.9285 20.614 35.4524 21.8415 37.0929C23.0689 38.7335 24.3751 40.0227 25.7588 40.9601Z" fill="white"/>
<path d="M76.6514 44.5423C69.3307 49.4973 63.772 53.348 59.9778 56.0939C58.7055 57.031 57.6734 57.7626 56.8808 58.2868C56.0881 58.8113 55.0339 59.347 53.7167 59.8936C52.4 60.4411 51.1728 60.714 50.0342 60.714H50.0001H49.9665C48.8281 60.714 47.6002 60.4411 46.2835 59.8936C44.9667 59.347 43.9119 58.8113 43.1195 58.2868C42.3273 57.7626 41.2948 57.031 40.0226 56.0939C37.0091 53.8842 31.4623 50.0332 23.382 44.5423C22.1094 43.6947 20.9822 42.7231 20 41.6295V68.2136C20 69.6877 20.5243 70.9483 21.5736 71.9974C22.6226 73.0469 23.884 73.5714 25.3573 73.5714H74.6432C76.1161 73.5714 77.3774 73.0469 78.4265 71.9974C79.476 70.9479 80.0001 69.6878 80.0001 68.2136V41.6295C79.0401 42.7005 77.9244 43.6721 76.6514 44.5423Z" fill="white"/>
</g>
<defs>
<clipPath id="clip0">
<rect width="60" height="60" fill="white" transform="translate(20 20)"/>
</clipPath>
</defs>
</svg>
