<svg width="125" height="125" viewBox="0 0 125 125" fill="none" xmlns="http://www.w3.org/2000/svg">
<rect x="27.5" y="26.5" width="71" height="72" rx="9.5" stroke="#006DB7"/>
<path d="M27.5 36C27.5 30.7533 31.7533 26.5 37 26.5H89C94.2467 26.5 98.5 30.7533 98.5 36V46.5H27.5V36Z" fill="#006DB7" stroke="#006DB7"/>
<rect x="33.5" y="52.5" width="33" height="21" stroke="#006DB7"/>
<rect x="33.5" y="80.5" width="33" height="11" fill="#37B5FF" stroke="#006DB7"/>
<rect x="73.5" y="52.5" width="19" height="39" stroke="#006DB7"/>
<circle cx="37" cy="36" r="3.5" stroke="#F8F8F8"/>
<circle cx="49" cy="36" r="3.5" stroke="#F8F8F8"/>
<rect x="59.5" y="32.5" width="33" height="7" rx="3.5" fill="#F8F8F8" stroke="#F8F8F8"/>
<path d="M16.8824 66.1765C15.7056 57.8022 19.7846 49.4117 27.6178 46.2253L47.3914 38.1818C56.4845 34.4829 66.9229 36.9629 73.3806 44.3565L82.9682 55.3336C87.9908 61.0841 89.8324 68.9523 87.8835 76.3345L82.7372 95.8278C79.7158 107.272 68.5016 114.555 56.8175 112.66L50.2395 111.594C48.0538 111.239 45.8264 111.226 43.6367 111.554C29.1105 113.733 16.6806 100.915 17.4176 86.2448C17.7661 79.308 17.7283 72.1963 16.8824 66.1765Z" fill="#37B5FF" fill-opacity="0.136"/>
</svg>
