<svg xmlns="http://www.w3.org/2000/svg" width="125" height="125" fill="none" viewBox="0 0 125 125">
    <rect width="23.7544" height="82.1058" x="25.7856" y="41.7969" fill="#006DB7" transform="rotate(-45 25.7856 41.7969)"/>
    <rect width="19.3804" height="75.904" x="30.0435" y="42.3505" fill="#006DB7" stroke="#006DB7" transform="rotate(-45 30.0435 42.3505)"/>
    <g>
        <rect width="2.12365" height="7.56702" x="50.8452" y="30.4651" fill="#F8F8F8" stroke="#F8F8F8" transform="rotate(45 50.8452 30.4651)"/>
        <rect width="2.12365" height="8.39173" x="62.5715" y="41.3764" fill="#F8F8F8" stroke="#F8F8F8" transform="rotate(45 62.5715 41.3764)"/>
        <rect width="2.12365" height="14.5556" x="57.8828" y="34.9223" fill="#F8F8F8" stroke="#F8F8F8" transform="rotate(45 57.8828 34.9223)"/>
        <rect width="2.12365" height="7.56702" x="82.4167" y="63.2261" fill="#F8F8F8" stroke="#F8F8F8" transform="rotate(45 82.4167 63.2261)"/>
        <rect width="2.12365" height="8.39173" x="94.1428" y="74.1374" fill="#F8F8F8" stroke="#F8F8F8" transform="rotate(45 94.1428 74.1374)"/>
        <rect width="2.12365" height="14.5556" x="89.4541" y="67.6834" fill="#F8F8F8" stroke="#F8F8F8" transform="rotate(45 89.4541 67.6834)"/>
    </g>
    <rect width="22.6375" height="81.7314" x="26.4928" y="41.7142" stroke="#006DB7" transform="rotate(-45 26.4928 41.7142)"/>
    <path fill="#F8F8F8" stroke="#006DB7" d="M89.0495 46.9732L79.0253 36.949L32.1639 83.8103L28.7643 96.6823L42.1974 93.8253L89.0495 46.9732Z"/>
    <rect width="14.1764" height="6.91184" x="89.3582" y="46.6647" stroke="#006DB7" transform="rotate(-135 89.3582 46.6647)"/>
    <path fill="#006DB7" stroke="#006DB7" d="M97.6736 34.8135L91.1849 28.3248C90.2086 27.3485 88.6256 27.3485 87.6493 28.3248L84.9283 31.0459L94.9525 41.0701L97.6736 38.3491C98.6499 37.3728 98.6499 35.7898 97.6736 34.8135Z"/>
    <mask id="path-13-inside-1" fill="white">
        <path fill-rule="evenodd" d="M42.7417 93.9883L32.1025 83.1648L31.7153 83.552L28.0737 97.3404L42.4465 94.2835L42.7417 93.9883Z" clip-rule="evenodd"/>
    </mask>
    <path fill="#006DB7" d="M42.7417 93.9883L43.4488 94.6954L44.1499 93.9943L43.4549 93.2873L42.7417 93.9883ZM32.1025 83.1648L32.8157 82.4638L32.1086 81.7445L31.3954 82.4577L32.1025 83.1648ZM31.7153 83.552L31.0082 82.8449L30.8174 83.0357L30.7485 83.2966L31.7153 83.552ZM28.0737 97.3404L27.1069 97.085L26.6918 98.6566L28.2818 98.3185L28.0737 97.3404ZM42.4465 94.2835L42.6545 95.2617L42.9442 95.2001L43.1536 94.9906L42.4465 94.2835ZM43.4549 93.2873L32.8157 82.4638L31.3894 83.8658L42.0286 94.6893L43.4549 93.2873ZM31.3954 82.4577L31.0082 82.8449L32.4225 84.2591L32.8096 83.8719L31.3954 82.4577ZM30.7485 83.2966L27.1069 97.085L29.0406 97.5957L32.6822 83.8073L30.7485 83.2966ZM28.2818 98.3185L42.6545 95.2617L42.2384 93.3054L27.8657 96.3622L28.2818 98.3185ZM43.1536 94.9906L43.4488 94.6954L42.0346 93.2812L41.7394 93.5764L43.1536 94.9906Z" mask="url(#path-13-inside-1)"/>
    <mask id="path-15-inside-2" fill="white">
        <path fill-rule="evenodd" d="M34.9337 95.8813L29.8301 90.6893L28.0735 97.3404L34.9337 95.8813Z" clip-rule="evenodd"/>
    </mask>
    <path fill="#37B5FF" fill-rule="evenodd" d="M34.9337 95.8813L29.8301 90.6893L28.0735 97.3404L34.9337 95.8813Z" clip-rule="evenodd"/>
    <path fill="#006DB7" d="M29.8301 90.6893L30.5432 89.9883L29.3118 88.7355L28.8632 90.434L29.8301 90.6893ZM34.9337 95.8813L35.1417 96.8595L36.9247 96.4803L35.6469 95.1803L34.9337 95.8813ZM28.0735 97.3404L27.1066 97.085L26.6916 98.6567L28.2815 98.3185L28.0735 97.3404ZM29.1169 91.3903L34.2206 96.5824L35.6469 95.1803L30.5432 89.9883L29.1169 91.3903ZM28.8632 90.434L27.1066 97.085L29.0403 97.5957L30.7969 90.9447L28.8632 90.434ZM28.2815 98.3185L35.1417 96.8595L34.7257 94.9032L27.8655 96.3623L28.2815 98.3185Z" mask="url(#path-15-inside-2)"/>
    <path fill="#37B5FF" fill-opacity="0.136" d="M37.2193 48.2451C35.9046 38.8717 40.4686 29.4813 49.2337 25.9089L73.0485 16.2027C82.1518 12.4925 92.6069 14.9781 99.0665 22.3882L111.991 37.2144C117 42.9609 118.837 50.8162 116.894 58.1881L110.144 83.8094C107.126 95.2621 95.9044 102.551 84.2141 100.651L74.3416 99.0474C71.9891 98.6652 69.5915 98.6509 67.2347 99.0051L65.8359 99.2154C50.2314 101.561 36.8546 87.7985 37.7455 72.044C38.2082 63.8624 38.2186 55.3703 37.2193 48.2451Z"/>
</svg>
