<svg width="200" height="180" viewBox="0 0 200 180" fill="none" xmlns="http://www.w3.org/2000/svg">
<g id="icon-rest-easy">
<rect width="200" height="180" fill="white"/>
<g id="Icon-RestEasy">
<g id="cake" clip-path="url(#clip0)">
<path id="Union" d="M55.5246 118.721V118.631L55.5138 118.542L54.2537 108.079L58.3353 107.501L140.341 107.5L144.423 108.079L143.163 118.542L143.152 118.631V118.721L143.152 132.121H55.5246V118.721Z" fill="white" stroke="#006DB7" stroke-width="3"/>
<path id="Vector" d="M110.532 65.3175C108.562 65.3175 106.593 64.5679 105.093 63.0693C102.095 60.0698 102.095 55.1907 105.093 52.192C108.092 49.1933 112.971 49.1933 115.971 52.192C118.969 55.1907 118.969 60.0698 115.971 63.0693C114.47 64.5679 112.501 65.3175 110.532 65.3175Z" fill="#E10E4B"/>
<g id="Union_2">
<mask id="path-3-inside-1" fill="white">
<path fill-rule="evenodd" clip-rule="evenodd" d="M99.5348 65.3745C97.473 65.374 95.4114 64.6671 93.7488 63.2533C92.2753 64.6292 90.3883 65.3175 88.5006 65.3175C86.5314 65.3175 84.5621 64.5679 83.062 63.0693C80.0633 60.0698 80.0633 55.1907 83.062 52.192C85.5962 49.6584 89.4721 49.2654 92.4221 51.013C92.6619 50.6986 92.9254 50.3966 93.2125 50.1095C96.6996 46.6224 102.374 46.6224 105.861 50.1095C106.143 50.3915 106.403 50.6878 106.639 50.9961C109.585 49.268 113.445 49.6666 115.971 52.192C118.969 55.1907 118.969 60.0698 115.971 63.0693C114.47 64.5679 112.501 65.3175 110.532 65.3175C108.653 65.3175 106.774 64.6354 105.304 63.2718C104.059 64.3233 102.593 64.9803 101.071 65.2431C100.564 65.3307 100.05 65.3745 99.537 65.3745C99.5363 65.3745 99.5355 65.3745 99.5348 65.3745Z"/>
</mask>
<path fill-rule="evenodd" clip-rule="evenodd" d="M99.5348 65.3745C97.473 65.374 95.4114 64.6671 93.7488 63.2533C92.2753 64.6292 90.3883 65.3175 88.5006 65.3175C86.5314 65.3175 84.5621 64.5679 83.062 63.0693C80.0633 60.0698 80.0633 55.1907 83.062 52.192C85.5962 49.6584 89.4721 49.2654 92.4221 51.013C92.6619 50.6986 92.9254 50.3966 93.2125 50.1095C96.6996 46.6224 102.374 46.6224 105.861 50.1095C106.143 50.3915 106.403 50.6878 106.639 50.9961C109.585 49.268 113.445 49.6666 115.971 52.192C118.969 55.1907 118.969 60.0698 115.971 63.0693C114.47 64.5679 112.501 65.3175 110.532 65.3175C108.653 65.3175 106.774 64.6354 105.304 63.2718C104.059 64.3233 102.593 64.9803 101.071 65.2431C100.564 65.3307 100.05 65.3745 99.537 65.3745C99.5363 65.3745 99.5355 65.3745 99.5348 65.3745Z" fill="#37B5FF"/>
<path d="M93.7488 63.2533L95.6922 60.9679L93.6555 59.2359L91.7013 61.0606L93.7488 63.2533ZM99.5348 65.3745L99.5814 62.3749L99.5585 62.3745L99.5355 62.3745L99.5348 65.3745ZM83.062 63.0693L80.9404 65.1903L80.9417 65.1916L83.062 63.0693ZM83.062 52.192L80.9409 50.0704L80.9407 50.0707L83.062 52.192ZM92.4221 51.013L90.8931 53.5941L93.1888 54.954L94.8073 52.8326L92.4221 51.013ZM93.2125 50.1095L91.0912 47.9882L91.091 47.9884L93.2125 50.1095ZM105.861 50.1095L107.983 47.9882L107.983 47.9882L105.861 50.1095ZM106.639 50.9961L104.258 52.8217L105.871 54.9245L108.157 53.5838L106.639 50.9961ZM115.971 52.192L118.092 50.0707L118.092 50.0704L115.971 52.192ZM115.971 63.0693L118.091 65.1916L118.092 65.1903L115.971 63.0693ZM105.304 63.2718L107.343 61.072L105.396 59.266L103.367 60.9804L105.304 63.2718ZM101.071 65.2431L101.582 68.1994H101.582L101.071 65.2431ZM91.8053 65.5387C94.0314 67.4317 96.7888 68.3739 99.5341 68.3745L99.5355 62.3745C98.1573 62.3742 96.7913 61.9026 95.6922 60.9679L91.8053 65.5387ZM88.5006 68.3175C91.1163 68.3175 93.7441 67.3622 95.7963 65.446L91.7013 61.0606C90.8064 61.8963 89.6603 62.3175 88.5006 62.3175V68.3175ZM80.9417 65.1916C83.0283 67.2761 85.7708 68.3175 88.5006 68.3175V62.3175C87.292 62.3175 86.0959 61.8596 85.1823 60.9469L80.9417 65.1916ZM80.9407 50.0707C76.7703 54.2411 76.7707 61.0195 80.9404 65.1903L85.1836 60.9482C83.356 59.1201 83.3564 56.1403 85.1833 54.3133L80.9407 50.0707ZM93.9511 48.4319C89.853 46.0042 84.4691 46.5431 80.9409 50.0704L85.1831 54.3136C86.7232 52.7738 89.0912 52.5267 90.8931 53.5941L93.9511 48.4319ZM91.091 47.9884C90.7091 48.3704 90.3576 48.7731 90.037 49.1933L94.8073 52.8326C94.9663 52.6241 95.1418 52.4229 95.3341 52.2306L91.091 47.9884ZM107.983 47.9882C103.324 43.3295 95.7499 43.3295 91.0912 47.9882L95.3338 52.2308C97.6494 49.9153 101.425 49.9153 103.74 52.2308L107.983 47.9882ZM109.02 49.1705C108.704 48.7584 108.358 48.3633 107.983 47.9882L103.74 52.2308C103.929 52.4197 104.102 52.6172 104.258 52.8217L109.02 49.1705ZM118.092 50.0704C114.575 46.5544 109.214 46.0078 105.121 48.4083L108.157 53.5838C109.957 52.5282 112.314 52.7788 113.849 54.3136L118.092 50.0704ZM118.092 65.1903C122.262 61.0195 122.262 54.2411 118.092 50.0707L113.849 54.3133C115.676 56.1403 115.677 59.1201 113.849 60.9482L118.092 65.1903ZM110.532 68.3175C113.262 68.3175 116.004 67.2761 118.091 65.1916L113.85 60.9469C112.937 61.8596 111.741 62.3175 110.532 62.3175V68.3175ZM103.264 65.4716C105.312 67.3708 107.928 68.3175 110.532 68.3175V62.3175C109.377 62.3175 108.236 61.9 107.343 61.072L103.264 65.4716ZM101.582 68.1994C103.612 67.8487 105.575 66.9703 107.24 65.5631L103.367 60.9804C102.544 61.6763 101.574 62.1119 100.561 62.2869L101.582 68.1994ZM99.537 68.3745C100.221 68.3745 100.905 68.3162 101.582 68.1994L100.561 62.2869C100.222 62.3453 99.8798 62.3745 99.537 62.3745V68.3745ZM99.4882 68.3742C99.5037 68.3744 99.5164 68.3745 99.5242 68.3745C99.5282 68.3745 99.5315 68.3745 99.5335 68.3745C99.5346 68.3745 99.5354 68.3745 99.536 68.3745C99.5365 68.3745 99.537 68.3745 99.537 68.3745V62.3745C99.5357 62.3745 99.5411 62.3745 99.5476 62.3746C99.5547 62.3746 99.5666 62.3747 99.5814 62.3749L99.4882 68.3742Z" fill="#006DB7" mask="url(#path-3-inside-1)"/>
</g>
<path id="Vector_2" d="M54.0247 124.186H144.652V133.621H54.0247V124.186Z" fill="#DEECF1"/>
<path id="Vector_3" d="M54.0247 124.186H144.652V133.621H54.0247V124.186Z" fill="#006DB7"/>
<path id="Vector_4" d="M99.5 124.186H144.652V133.621H99.5V124.186Z" fill="#006DB7"/>
<path id="Union_3" d="M134.381 75.5013L133.008 93.5H66.0263L64.6219 75.5557L134.381 75.5013Z" fill="white" stroke="#006DB7" stroke-width="3"/>
<path id="Vector_5" d="M137.67 82.7487H134.829C131.766 82.7487 130.079 81.626 128.847 80.8068C127.887 80.1681 127.359 79.8159 126.013 79.8159C124.668 79.8159 124.14 80.1681 123.179 80.8068C121.948 81.626 120.261 82.7487 117.198 82.7487C114.135 82.7487 112.448 81.626 111.216 80.8068C110.256 80.1681 109.728 79.8159 108.382 79.8159C107.037 79.8159 106.508 80.1681 105.549 80.8068C104.317 81.626 102.63 82.7487 99.5674 82.7487C96.5043 82.7487 94.817 81.626 93.5856 80.8068C92.6257 80.1681 92.0966 79.8159 90.7519 79.8159C89.4065 79.8159 88.8781 80.1681 87.9183 80.8068C86.6861 81.626 84.9987 82.7487 81.9357 82.7487C78.8733 82.7487 77.186 81.626 75.9538 80.8068C74.994 80.1681 74.4649 79.8159 73.1202 79.8159C71.7748 79.8159 71.2456 80.1681 70.2858 80.8068C69.0536 81.626 67.3663 82.7487 64.304 82.7487H61.4622V73.1695C61.4622 65.4263 67.7615 59.1263 75.5046 59.1263H123.628C131.371 59.1263 137.671 65.4263 137.671 73.1695V82.7487H137.67Z" fill="#006DB7"/>
<path id="Vector_6" d="M105.548 80.8068C106.508 80.1681 107.037 79.8159 108.382 79.8159C109.727 79.8159 110.256 80.1681 111.216 80.8068C112.448 81.626 114.135 82.7487 117.198 82.7487C120.261 82.7487 121.947 81.626 123.179 80.8068C124.139 80.1681 124.668 79.8159 126.013 79.8159C127.358 79.8159 127.887 80.1681 128.847 80.8068C130.078 81.626 131.765 82.7487 134.829 82.7487H137.67V73.1695C137.67 65.4263 131.37 59.1263 123.627 59.1263H99.5V82.7465C99.5229 82.7472 99.5437 82.7487 99.5673 82.7487C102.63 82.7487 104.317 81.626 105.548 80.8068Z" fill="#006DB7"/>
<path id="Vector_7" d="M148 113.049H145.158C141.878 113.049 139.653 112.163 137.69 111.381C135.987 110.702 134.516 110.117 132.326 110.117C130.304 110.117 129.42 110.59 128.198 111.246C126.699 112.049 124.833 113.049 121.384 113.049C117.935 113.049 116.07 112.049 114.571 111.246C113.348 110.59 112.464 110.117 110.442 110.117C108.421 110.117 107.538 110.59 106.315 111.245C104.816 112.049 102.951 113.049 99.5015 113.049C96.0528 113.049 94.1872 112.049 92.6878 111.245C91.4653 110.589 90.5816 110.116 88.5598 110.116C86.538 110.116 85.6544 110.589 84.4311 111.245C82.9325 112.049 81.0668 113.049 77.6174 113.049C74.1688 113.049 72.3031 112.049 70.8038 111.245C69.5812 110.589 68.6976 110.116 66.675 110.116C64.4845 110.116 63.0133 110.702 61.3104 111.381C59.347 112.163 57.1224 113.049 53.8418 113.049H51V103.469C51 95.7262 57.3001 89.4269 65.0432 89.4269H133.957C141.7 89.4269 148 95.7262 148 103.469V113.049Z" fill="#006DB7"/>
<path id="Vector_8" d="M133.957 89.4269H99.5V113.049H99.5015C102.951 113.049 104.816 112.049 106.315 111.245C107.538 110.589 108.421 110.116 110.442 110.116C112.464 110.116 113.348 110.589 114.571 111.245C116.07 112.049 117.935 113.049 121.384 113.049C124.833 113.049 126.699 112.049 128.198 111.245C129.42 110.589 130.304 110.116 132.326 110.116C134.516 110.116 135.987 110.702 137.69 111.381C139.653 112.163 141.878 113.049 145.158 113.049H148V103.469C148 95.7262 141.7 89.4269 133.957 89.4269Z" fill="#006DB7"/>
</g>
<path id="Rectangle" d="M137.269 97.4538C145.24 89.3628 147.087 76.8711 140.92 67.3327L115.826 28.5149C110.497 20.2709 100.523 16.3181 90.9929 18.6733L52.9282 28.0805C45.516 29.9123 39.4961 35.303 36.8603 42.4688L19.4181 89.8881C15.3319 100.997 20.3445 113.394 31.0038 118.54L52.6369 128.985C54.7791 130.02 56.7478 131.38 58.4729 133.018L70.4562 144.395C81.9001 155.261 100.802 151.706 108.588 137.98C116.001 124.911 125.417 110.097 134.956 99.8625C135.675 99.0909 136.454 98.2815 137.269 97.4538Z" fill="#37B5FF" fill-opacity="0.136"/>
</g>
</g>
<defs>
<clipPath id="clip0">
<rect width="97" height="97" fill="white" transform="translate(51 42)"/>
</clipPath>
</defs>
</svg>
