<svg width="125" height="125" viewBox="0 0 125 125" fill="none" xmlns="http://www.w3.org/2000/svg">
<g clip-path="url(#clip0)">
<g clip-path="url(#clip1)">
<path d="M27.0833 92.8333V47.3333H98.9166V92.8333C98.9166 96.7739 95.6904 100 91.7499 100H34.2499C30.3094 100 27.0833 96.7739 27.0833 92.8333Z" stroke="#006DB7"/>
<path d="M98.9166 39.1667V50.1667H27.0833V39.1667C27.0833 35.2261 30.3094 32 34.2499 32H91.7499C95.6904 32 98.9166 35.2261 98.9166 39.1667Z" fill="#006DB7" stroke="#006DB7"/>
<path d="M85.5 39.1667C85.5 42.0662 83.1495 44.4167 80.25 44.4167C77.3505 44.4167 75 42.0662 75 39.1667C75 36.2672 77.3505 33.9167 80.25 33.9167C83.1495 33.9167 85.5 36.2672 85.5 39.1667Z" fill="#F8F8F8" stroke="#006DB7"/>
<path d="M51 39.1667C51 42.0662 48.6495 44.4167 45.75 44.4167C42.8505 44.4167 40.5 42.0662 40.5 39.1667C40.5 36.2672 42.8505 33.9167 45.75 33.9167C48.6495 33.9167 51 36.2672 51 39.1667Z" fill="#F8F8F8" stroke="#006DB7"/>
<path d="M76.9167 29.5833C76.9167 27.7511 78.4179 26.25 80.2501 26.25C82.0823 26.25 83.5834 27.7511 83.5834 29.5833V39.1667C83.5834 40.9989 82.0823 42.5 80.2501 42.5C78.4179 42.5 76.9167 40.9989 76.9167 39.1667V29.5833Z" fill="#006DB7" stroke="#006DB7"/>
<path d="M45.7501 25.75C43.6417 25.75 41.9167 27.475 41.9167 29.5833V39.1667C41.9167 41.275 43.6417 43 45.7501 43C47.8584 43 49.5834 41.275 49.5834 39.1667V29.5833C49.5834 27.475 47.8584 25.75 45.7501 25.75Z" fill="#006DB7"/>
<path d="M42.4167 65.5V58.8333H49.0834V65.5H42.4167Z" stroke="#006DB7"/>
<path d="M53.9167 65.5V58.8333H60.5834V65.5H53.9167Z" stroke="#006DB7"/>
<path d="M65.4167 65.5V58.8333H72.0834V65.5H65.4167Z" stroke="#006DB7"/>
<path d="M76.9167 65.5V58.8333H83.5834V65.5H76.9167Z" stroke="#006DB7"/>
<path d="M42.4167 77V70.3333H49.0834V77H42.4167Z" stroke="#006DB7"/>
<path d="M53.9167 77V70.3333H60.5834V77H53.9167Z" stroke="#006DB7"/>
<path d="M65.4167 77V70.3333H72.0834V77H65.4167Z" fill="#37B5FF" stroke="#006DB7"/>
<path d="M76.9167 77V70.3333H83.5834V77H76.9167Z" stroke="#006DB7"/>
<path d="M42.4167 88.5V81.8333H49.0834V88.5H42.4167Z" stroke="#006DB7"/>
<path d="M53.9167 88.5V81.8333H60.5834V88.5H53.9167Z" stroke="#006DB7"/>
<path d="M65.4167 88.5V81.8333H72.0834V88.5H65.4167Z" stroke="#006DB7"/>
<path d="M76.9167 88.5V81.8333H83.5834V88.5H76.9167Z" stroke="#006DB7"/>
</g>
<path d="M70.7645 15.9272C80.6821 15.1448 90.2433 20.5309 93.4331 29.954L102.369 56.3516C105.521 65.663 102.407 75.9483 94.6187 81.9472L77.0835 95.4544C71.0441 100.107 63.092 101.464 55.8513 99.0785L27.7975 89.8363C16.5486 86.1304 9.95298 74.488 12.557 62.9342L15.1432 51.4597C15.6673 49.1347 15.8267 46.7424 15.6159 44.3684L15.3228 41.0673C13.9272 25.3494 28.4728 12.8112 44.131 14.7662C53.1751 15.8954 62.7448 16.5599 70.7645 15.9272V15.9272Z" fill="#37B5FF" fill-opacity="0.136"/>
</g>
<defs>
<clipPath id="clip0">
<rect width="125" height="125" fill="white"/>
</clipPath>
<clipPath id="clip1">
<rect width="74" height="76" fill="white" transform="translate(26 25)"/>
</clipPath>
</defs>
</svg>
