<svg width="331" height="331" viewBox="0 0 331 331" fill="none" xmlns="http://www.w3.org/2000/svg">
<path fill-rule="evenodd" clip-rule="evenodd" d="M201.315 219.406L201.315 280.221C201.315 285.076 197.823 289.012 193.516 289.012C189.208 289.012 185.716 285.076 185.716 280.221L185.716 51.753C185.716 39.0775 199.029 32.3827 207.398 40.8496L210.643 44.1322C243.632 77.5078 256.009 129.702 242.191 177.178L234.165 204.752L234.165 280.221C234.165 285.076 230.674 289.012 226.366 289.012C222.059 289.012 218.567 285.076 218.567 280.221V219.406L201.315 219.406ZM201.315 202.383L201.315 58.3379C228.881 87.0951 239.105 131.374 227.369 171.698L218.567 201.942L218.567 202.383H201.315Z" fill="white"/>
<path d="M83.6956 49.236C83.7281 44.7965 80.1555 41.1713 75.716 41.1388C71.2766 41.1064 67.6513 44.6789 67.6189 49.1184C67.4036 78.5599 69.3276 116.176 75.6592 130.411C78.9395 137.786 83.4313 143.552 89.372 147.944C93.6065 151.075 98.3688 153.353 103.556 155.082L103.556 279.931C103.556 284.371 107.155 287.97 111.594 287.97C116.034 287.97 119.633 284.371 119.633 279.931V155.082C124.82 153.353 129.582 151.075 133.817 147.944C139.757 143.552 144.249 137.786 147.53 130.411C153.861 116.176 155.785 78.5599 155.57 49.1184C155.537 44.6789 151.912 41.1064 147.473 41.1388C143.033 41.1713 139.461 44.7965 139.493 49.236C139.709 78.7396 137.611 113.15 132.84 123.877C130.569 128.983 127.739 132.443 124.259 135.016C121.058 137.382 117.019 140.725 111.594 140.725C106.169 140.725 102.13 137.382 98.9297 135.016C95.4498 132.443 92.6199 128.983 90.3488 123.877C85.5775 113.15 83.4798 78.7396 83.6956 49.236Z" fill="white"/>
<path d="M22.6971 22.6971H308.303V259.126H331V0H0V331H259.126V308.303H22.6971V22.6971Z" fill="white"/>
<path fill-rule="evenodd" clip-rule="evenodd" d="M331 274.257H274.257V331H331V274.257ZM313.977 291.28H291.28V313.977H313.977V291.28Z" fill="white"/>
</svg>
